<svg width="1026" height="265" viewBox="0 0 1026 265" fill="none" xmlns="http://www.w3.org/2000/svg">
<g clip-path="url(#clip0_89_41)">
<path d="M513.35 180.784H512.662V182.906H513.35V180.784Z" fill="url(#paint0_linear_89_41)"/>
<path d="M513.35 190.519H512.662V192.64H513.35V190.519Z" fill="url(#paint1_linear_89_41)"/>
<path d="M513.35 209.987H512.662V212.108H513.35V209.987Z" fill="url(#paint2_linear_89_41)"/>
<path d="M513.35 200.253H512.662V202.374H513.35V200.253Z" fill="url(#paint3_linear_89_41)"/>
<path d="M1026 131.704V130.301L1016.01 109.319L1015.9 109.087L1015.65 109.164L991.71 116.545L991.5 116.611V230.052L988.494 229.013L988.361 228.991L981.874 229.466V171.846L981.752 171.746L964.651 157.106L964.518 156.996L964.352 157.029L940.786 162.62V111.363L940.697 111.153L913.338 83.0556L913.194 82.9009L913.006 82.9893L878.804 98.469L878.627 98.5463V239.333L869.001 239.985V188.099L868.779 188.021L851.679 182.132H851.49L845.025 183.69V61.4658L844.914 61.3774L827.813 47.2125L827.636 47.0689L827.447 47.2015L801.231 65.2777L801.098 65.3661V203.711L786.969 200.75V135.903L786.781 135.826L759.422 124.235L759.289 124.18L759.156 124.257L731.797 139.792L731.642 139.881V231.455L721.983 230.571V18.5403L721.85 18.4519L694.513 0.176785L694.269 0.011049L694.103 0.254128L666.744 40.0748L666.689 40.2406V180.663L655.311 178.42V85.1218L655.122 85.0444L633.197 75.8737V58.2836L633.02 58.2063L629.305 56.6042L628.883 56.4274V74.592L620.023 89.0663L619.978 89.2209V145.461L615.542 144.345L615.354 144.3L615.221 144.455L598.819 163.614V125.064L598.586 124.998L574.643 118.214L574.377 118.136L574.266 118.39L557.165 158.907L557.143 159.029V189.679L529.929 185.878L529.618 185.834L529.552 186.132L524.606 209.037V209.103V241.057L513.017 240.582H512.994L501.361 241.057V230.251L501.339 230.14L492.789 205.788V107.474L492.567 107.419L469.134 101.264H468.968L454.795 105.607L454.584 105.673V204.661L448.817 205.324V145.991V145.781L448.618 145.704L431.04 139.306H430.863L403.504 146.201L403.271 146.256V229.709L383.354 223.478V98.4911L383.288 98.3033L352.502 59.0129L352.347 58.8251L352.125 58.9355L327.439 71.1226L327.273 71.211V142.245L287.183 154.742L286.95 154.808V180.364L266.877 172.928H266.678L253.392 176.586V130.721L253.226 130.633L222.451 114.822L222.318 114.755L222.185 114.833L202.368 125.186L202.201 125.274V126.39L201.17 125.937L201.037 125.882L200.904 125.948L196.058 128.478L195.891 128.567V131.24L193.219 130.091L193.085 130.036L192.952 130.102L187.962 132.71L187.796 132.798V138.831L187.984 138.908L188.716 139.196V143.715L187.962 144.079L187.785 144.157V150.377L187.984 150.444L189.015 150.797V155.261L187.973 155.714L187.796 155.791V162.023V162.244L188.006 162.31L189.991 162.929V167.039L187.995 167.802L187.796 167.879V195.314L181.33 193.944H181.164L171.327 196.761V141.538L171.105 141.461L112.961 120.611L112.784 120.545L112.64 120.666L92.7223 136.864V16.3747L92.5781 16.2863L65.2194 0.165736L64.9422 0L64.798 0.298324L37.4393 56.4716L37.4061 56.6042V190.507L30.4638 195.568V141.041L30.2309 140.986L9.71471 135.748L9.49292 135.693L9.38202 135.892L0 152.355V153.571L1.10899 151.637V246.725L0 247.023V247.686L4.05889 246.592V263.818H0V265.022H1026V263.818H1013.05V250.161L1026 252.636V251.907L1025.89 251.885V131.483L1026 131.727V131.704ZM1012.68 249.344L1010.01 249.421V111.518L1015.44 109.849V249.863L1012.76 249.355H1012.68V249.344ZM500.308 251.807V259.354L491.38 259.431V252.017L500.308 251.819V251.807ZM500.64 260.017H500.973V251.145H500.629L496.227 251.255V241.963L512.662 241.289V263.807H496.227V260.061L500.64 260.028V260.017ZM513.327 241.289L531.049 242.007V249.929L529.596 249.896V250.261L529.574 249.896L521.046 250.095H520.691V263.796H513.316V241.278L513.327 241.289ZM530.217 186.596L563.498 191.248V208.296L551.022 206.971L550.822 206.948L550.711 207.114L534.52 231.444L534.464 231.621V250.006L531.703 249.94V241.366H531.381L530.206 241.311V186.596H530.217ZM584.857 211.224V216.904L551.321 213.766V207.667L584.857 211.224ZM573.966 249.266L573.689 249.332V249.741L551.321 249.123V242.416L584.857 243.808V246.625L573.966 249.266ZM550.656 227.743L535.13 242.681V239.499L550.656 221.71V227.732V227.743ZM551.321 228.163L584.857 230.439V236.46L551.321 234.626V228.163ZM551.321 227.566V221.213L584.857 223.92V229.831L551.321 227.555V227.566ZM550.656 220.815L535.13 238.604V235.576L550.656 214.992V220.826V220.815ZM535.13 243.521L550.656 228.582V234.792L535.13 246.846V243.521ZM551.321 235.234L584.857 237.068V243.2L551.321 241.808V235.223V235.234ZM584.857 223.323L551.321 220.616V214.373L584.857 217.511V223.323ZM550.656 213.987L535.13 234.571V231.742L550.656 208.407V213.998V213.987ZM535.13 247.609L550.656 235.554V241.952L536.804 250.084L535.13 250.04V247.609ZM550.656 242.648V249.222L542.316 252.515V250.227H541.961L537.936 250.117L550.645 242.659L550.656 242.648ZM542.327 253.155L550.667 249.863V256.603L542.327 258.26V253.155ZM551.321 249.719L573.689 250.338V256.857L551.321 256.548V249.719ZM521.434 250.813L529.23 250.625V263.807H521.434V250.813ZM529.951 250.625L541.595 250.924V263.807H529.951V250.625ZM542.327 258.868L550.667 257.21V263.796H542.327V258.868ZM551.321 257.144L573.689 257.454V263.796H551.321V257.144ZM574.41 249.896L587.341 246.758V263.796H574.41V249.885V249.896ZM588.073 246.67L607.89 247.388V263.807H588.073V246.67ZM600.482 182.994V246.404L596.523 246.261V183.48L600.482 182.994ZM601.081 246.416V182.917L605.04 182.431V246.559L601.081 246.416ZM595.913 246.239L591.987 246.095V184.044L595.913 183.558V246.239ZM608.267 246.681L605.639 246.581V182.353L609.598 181.867V263.796H608.611V246.681H608.267ZM610.197 181.79L614.156 181.304V263.796H610.197V181.79ZM614.766 181.237L618.725 180.751V240.803L616.363 240.88H616.041V260.614H616.374L618.725 260.603V263.818H614.766V181.248V181.237ZM615.786 145.074L632.454 149.283V178.387L615.786 180.442V145.074ZM616.707 259.94V241.521L639.33 240.747V259.796L616.707 259.928V259.94ZM623.283 180.188V240.637L619.324 240.769V180.674L623.283 180.188ZM628.44 240.46V179.547L632.399 179.061V240.328L628.44 240.46ZM627.841 240.482L623.882 240.615V180.11L627.841 179.624V240.482ZM632.998 240.305V178.983L636.957 178.497V240.162L632.998 240.294V240.305ZM619.324 260.58L623.283 260.558V263.807H619.324V260.591V260.58ZM623.882 260.558L627.841 260.536V263.807H623.882V260.558ZM628.44 260.525L632.399 260.503V263.807H628.44V260.536V260.525ZM632.998 260.503L636.957 260.481V263.807H632.998V260.503ZM637.556 260.47H639.652L639.984 260.459V240.073H639.641L637.556 240.162V178.442L641.515 177.956V263.818H637.556V260.492V260.47ZM642.125 177.867L646.051 177.381V263.796H642.125V177.856V177.867ZM646.716 177.414L648.568 177.779V263.807H646.716V177.414ZM649.167 177.889L651.052 178.265V250.835L650.198 250.912L649.865 250.946V263.796H649.167V177.889ZM776.013 199.269V202.374L749.319 208.639V205.91L776.013 199.269ZM844.437 183.845L832.515 186.729L827.935 185.348V178.287L844.426 183.734V183.845H844.437ZM827.259 243.885V188.684L832.815 187.336V244.305L827.259 243.874V243.885ZM818.254 243.189H818.198L812.731 243.565V237.632L820.461 236.935V243.355L818.254 243.189ZM768.372 253.465L763.392 253.299H763.049V257.321L759.333 257.244V253.167H759.012L753.877 252.99H753.533V257.122L749.186 257.034V252.835H748.865L743.575 252.647H743.231V256.912L715.096 256.327V249.686L772.575 251.995V257.52L768.682 257.442V253.487H768.361L768.372 253.465ZM768.028 254.106V261.155L763.714 261.122V253.973L768.028 254.117V254.106ZM758.679 253.796V261.067L754.21 261.022V253.642L758.679 253.785V253.796ZM748.543 253.465V260.978L743.919 260.934V253.31L748.543 253.465ZM711.159 251.796L695.478 252.769L695.167 252.791V257.078L682.958 257.553V252.051L714.453 249.708V256.338L711.514 256.448V251.785L711.159 251.807V251.796ZM710.849 252.47V261.597L695.833 261.785V253.399L710.849 252.47ZM667.476 249.266H667.432L663.817 249.609V248.393L714.453 242.924V249.089L682.958 251.432V249.808H682.603L667.476 249.266ZM663.817 239.201L714.453 230.626V235.974L663.817 243.046V239.201ZM673.409 182.674V236.902L671.557 237.212V182.298L673.409 182.663V182.674ZM663.817 243.653L714.453 236.582V242.327L663.817 247.797V243.642V243.653ZM715.107 242.913L772.586 246.261V251.388L715.107 249.078V242.913ZM773.251 236.195L776.001 235.897V239.819L773.251 240.073V236.206V236.195ZM820.472 227.577L812.742 228.494V220.793L820.472 219.666V227.577ZM812.077 223.356L776.678 218.152V214.694L812.077 220.351V223.345V223.356ZM812.077 223.953V227.024L776.678 222.296V218.749L812.077 223.953ZM812.077 219.743L776.678 214.086V210.716L812.077 216.826V219.754V219.743ZM812.077 227.632V230.781L776.678 226.527V222.903L812.077 227.632ZM812.077 216.219L776.678 210.108V206.816L812.077 213.368V216.219ZM776.013 210.119L749.319 215.6V212.705L776.013 206.827V210.119ZM776.013 210.727V214.097L749.319 219.169V216.207L776.013 210.727ZM776.013 214.705V218.152L749.319 222.815V219.776L776.013 214.705ZM776.013 218.771V222.307L749.319 226.549V223.434L776.013 218.771ZM812.077 231.389V234.626L776.678 230.87V227.146L812.077 231.4V231.389ZM812.077 235.223V238.538L776.678 235.278V231.455L812.077 235.223ZM776.013 249.178L773.262 249.332V245.244L776.013 245.034V249.167V249.178ZM773.251 240.67L776.001 240.416V244.438L773.251 244.648V240.67ZM773.251 249.929L776.001 249.774V254.028L773.251 254.139V249.94V249.929ZM776.667 249.774L800.765 250.924V254.802L776.667 254.028V249.774ZM776.667 249.178V245.045L800.765 246.559V250.327L776.667 249.178ZM776.667 235.886L812.066 239.145V242.559L776.667 239.808V235.886ZM812.742 229.102L820.472 228.185V236.328L812.742 237.024V229.102ZM820.472 219.058L812.742 220.185V212.705L820.472 211.368V219.058ZM812.077 212.749L776.678 206.197V202.982L812.077 209.965V212.749ZM776.013 206.208L749.319 212.086V209.258L776.013 202.993V206.208ZM749.308 227.157L776.001 222.914V226.538L749.308 230.35V227.157ZM776.013 235.289L773.262 235.587V235.234L772.963 235.212L757.559 233.809L776.024 231.477V235.3L776.013 235.289ZM772.586 245.653L715.107 242.305V236.549L772.586 240.869V245.642V245.653ZM773.251 254.735L776.001 254.625V259L773.251 259.056V254.735ZM776.667 254.625L800.765 255.398V259.387L776.667 258.989V254.614V254.625ZM801.109 244.36L800.765 244.383V245.951L776.667 244.438V240.416L812.066 243.167V243.62L801.098 244.371L801.109 244.36ZM821.126 243.41V190.165L826.649 188.828V243.841L821.126 243.421V243.41ZM827.946 163.415L844.437 169.802V176.055L827.946 170.133V163.426V163.415ZM827.946 162.774V156.233L844.437 163.073V169.161L827.946 162.774ZM827.946 155.581V149.195L844.437 156.476V162.421L827.946 155.581ZM827.946 148.543V142.312L844.437 150.035V155.836L827.946 148.554V148.543ZM827.946 141.649V135.561L844.437 143.704V149.361L827.946 141.638V141.649ZM827.946 134.887V128.942L844.437 137.505V143.03L827.946 134.887ZM827.336 128.257L801.719 139.328V134.025L808.096 131.141L814.65 128.169L821.204 125.197L827.336 122.423V128.257ZM827.336 128.909V134.876L801.719 145.405V139.98L827.336 128.909ZM827.336 135.527V141.638L801.719 151.615V146.057L827.336 135.527ZM827.336 142.278V148.532L801.719 157.946V152.256L827.336 142.278ZM827.336 149.162V155.57L801.719 164.41V158.576L827.336 149.162ZM827.336 156.2V162.763L801.719 171.017V165.039L827.336 156.2ZM827.336 163.393V170.122L801.719 177.779V171.658L827.336 163.404V163.393ZM827.336 170.741V177.635L801.719 184.685V178.398L827.336 170.741ZM827.336 178.265V185.336L801.719 191.756V185.303L827.336 178.254V178.265ZM827.946 185.977L831.362 187.005L827.946 187.834V185.977ZM827.946 177.657V170.774L844.437 176.696V183.105L827.946 177.657ZM827.946 128.268V122.467L842.463 130.368L844.437 131.439V136.831L827.946 128.268ZM842.74 129.837L827.935 121.782V116.103L840.312 123.13L844.437 125.473V131.373L842.74 129.826V129.837ZM840.611 122.622L827.935 115.418V109.872L838.171 115.926L844.437 119.639V125.451L840.611 122.611V122.622ZM838.482 115.418L827.946 109.175V103.75L836.031 108.734L844.437 113.904V119.628L838.482 115.418ZM836.352 108.214L827.946 103.043V97.7397L836.031 102.9L844.437 108.269V113.882L836.352 108.214ZM836.352 102.402L827.946 97.0326V91.8396L836.031 97.1873L844.448 102.745V108.258L836.364 102.391L836.352 102.402ZM836.352 96.679L827.935 91.1103V86.0278L836.02 91.5523L844.437 97.3088V102.734L836.352 96.679ZM836.364 91.0661L827.946 85.3096V80.3375L836.02 86.0278L844.437 91.9611V97.2867L836.364 91.0551V91.0661ZM836.364 85.5416L827.946 79.6083V74.7357L836.02 80.6027L844.448 86.7239V91.9611L836.375 85.5416H836.364ZM836.364 80.1165L827.935 73.9954V69.2222L836.009 75.255L844.437 81.5529V86.7018L836.364 80.1055V80.1165ZM836.375 74.7799L827.946 68.4819V63.8082L836.009 70.0067L844.437 76.4814V81.5419L836.375 74.7688V74.7799ZM836.375 69.5316L827.946 63.0568V58.4825L836.009 64.8468L844.437 71.4983V76.4814L836.375 69.5426V69.5316ZM836.375 64.3717L827.946 57.7202V53.2342L836.009 59.7532L844.448 66.5815V71.4872L836.386 64.3717H836.375ZM827.336 121.771L820.96 124.655L814.406 127.627L807.852 130.6L801.719 133.373V128.191L827.336 116.07V121.771ZM801.719 127.517V122.445L822.257 112.324L823.754 117.087L801.719 127.506V127.517ZM801.719 121.782V116.821L820.627 107.131L822.08 111.739L801.719 121.771V121.782ZM801.719 116.147V111.297L819.041 102.093L820.438 106.557L801.708 116.147H801.719ZM801.719 110.623V105.883L817.511 97.1983L818.864 101.519L801.719 110.623ZM801.719 105.198V100.557L816.014 92.4362L817.322 96.6238L801.719 105.209V105.198ZM801.719 99.8612V95.32L814.55 87.7846L815.825 91.8396L801.719 99.8612ZM801.719 94.6239V90.1712L813.13 83.2655L814.361 87.199L801.719 94.6239ZM801.719 89.4751V85.1107L811.744 78.868L812.942 82.6799L801.719 89.464V89.4751ZM801.719 84.4036V80.1276L810.402 74.5699L811.567 78.2713L801.719 84.3925V84.4036ZM801.719 79.4204V75.2329L809.094 70.3934L810.225 73.9843L801.73 79.4204H801.719ZM801.719 74.5147V70.4155L807.807 66.3163L808.905 69.7967L801.719 74.5147ZM801.719 192.375L827.336 185.955V187.977L820.716 189.579L820.461 189.646V194.772L801.708 199.004V192.386L801.719 192.375ZM820.472 210.76L812.742 212.097V206.131L812.476 206.076L809.537 205.457L820.472 203.269V210.749V210.76ZM812.077 206.672V209.357L776.678 202.374V199.258L812.077 206.672ZM749.308 230.958L776.001 227.146V230.87L754.764 233.554L749.308 233.057V230.958ZM772.586 235.842V240.283L715.107 235.963V230.604L772.586 235.842ZM718.867 230.273L717.103 230.107V95.5852L716.382 15.4907L718.867 17.1481V230.262V230.273ZM716.371 95.5962V230.052L714.808 229.908H714.719L714.608 229.93V91.3534L713.887 13.8334L716.371 15.4907V95.5852V95.5962ZM713.887 91.3534V230.052L712.124 230.35V87.1216L711.403 12.176L713.887 13.8334V91.3534ZM711.403 87.1216V230.483L709.64 230.781V82.8788L708.919 10.5076L711.403 12.165V87.1106V87.1216ZM708.908 82.8788V230.892L707.145 231.19V78.647L706.424 8.86133L708.908 10.5187V82.8898V82.8788ZM706.424 78.647V231.323L704.66 231.621V74.4042L703.94 7.19292L706.424 8.85028V78.647ZM703.94 74.4042V231.742L702.176 232.041V70.1614L701.456 5.52452L703.94 7.18187V74.3931V74.4042ZM701.456 70.1614V232.151L699.692 232.45V65.9296L698.971 3.86716L701.456 5.52452V70.1614ZM698.96 65.9296V232.582L697.197 232.88V61.6868L696.476 2.19876L698.96 3.85611V65.9185V65.9296ZM696.476 61.6868V233.002L694.657 233.311V0.983364L696.476 2.19876V61.6868ZM694.047 233.411L690.155 234.074V7.07138L694.047 1.40323V233.422V233.411ZM689.512 234.184L685.586 234.847V13.7008L690.144 7.06033L689.501 234.173L689.512 234.184ZM684.954 234.947L681.028 235.61V20.3413L685.586 13.7008L684.943 234.947H684.954ZM680.396 235.72L676.47 236.383V26.9817L681.028 20.3413L680.385 235.72H680.396ZM675.838 236.493L674.075 236.792V182.132L673.808 182.077L671.923 181.701V33.6222L676.481 26.9817L675.838 236.505V236.493ZM670.947 237.322L669.062 237.643V181.823L670.947 182.199V237.333V237.322ZM668.463 237.742L666.578 238.062V181.326L668.463 181.701V237.742ZM665.979 238.162L664.094 238.482V180.84L665.979 181.215V238.173V238.162ZM663.484 238.582H663.417L663.14 238.637V249.675L661.599 249.819V180.342L663.484 180.718V238.582ZM661 249.885L659.114 250.062V179.856L661 180.232V249.885ZM658.516 250.128L656.63 250.305V179.37L658.516 179.746V250.128ZM656.031 250.36L654.146 250.537V178.873L656.031 179.248V250.36ZM653.536 250.603L651.651 250.78V178.387L653.536 178.762V250.603ZM650.586 251.598L667.099 250.018V263.796H650.586V251.598ZM667.82 249.995L682.226 250.504V263.796H667.82V249.995ZM682.958 258.139L695.167 257.663V262.448H695.5L711.181 262.249H711.514V257.034L714.453 256.923V263.796H682.958V258.139ZM715.107 256.923L743.242 257.509V261.597H743.575L748.865 261.652H749.197V257.641L753.544 257.73V261.696H753.877L759.012 261.741H759.344V257.851L763.06 257.929V261.785H763.392L768.372 261.829H768.704V258.039L772.597 258.116V263.807H715.118V256.923H715.107ZM773.251 259.652L776.001 259.597V263.796H773.251V259.652ZM776.667 259.597L800.765 259.995V263.807H776.667V259.608V259.597ZM801.486 245.057L817.866 243.941V263.807H801.486V245.057ZM818.586 243.941L834.966 245.2V263.807H818.586V243.941ZM835.354 244.504L833.414 244.349V187.182L838.97 185.834V263.785H835.698V244.515L835.365 244.493L835.354 244.504ZM839.568 185.701L845.125 184.353V263.796H839.568V185.69V185.701ZM845.723 184.209L851.246 182.873V263.796H845.723V184.198V184.209ZM851.911 182.917L853.42 183.436V263.807H851.911V182.917ZM854.019 183.646L855.549 184.176V250.084L854.817 250.117H854.473V263.818H854.019V183.657V183.646ZM884.937 96.3586L890.637 93.7842L890.038 136.29V238.736L889.24 238.637H889.173L884.937 238.924V96.3586ZM998.043 232.317V115.219L1003.52 113.529V234.217L998.043 232.317ZM1005.15 235.477V239.433L988.716 234.626V229.765L1005.15 235.466V235.477ZM998.808 258.558L988.705 257.94V252.526L998.808 253.741V258.547V258.558ZM967.69 260.923V244.902L974.554 244.604V260.879L967.69 260.923ZM1005.15 244.162L988.716 240.283V235.267L1005.15 240.073V244.173V244.162ZM988.051 240.228L971.615 241.057V236.206L988.051 235.19V240.239V240.228ZM964.773 247.134L967.035 247.454V252.493L964.773 252.283V247.134ZM938.49 197.855L937.381 198.032V194.098L938.49 193.911V197.855ZM929.94 186.607V190.331L928.82 190.53L928.797 186.828L929.94 186.618V186.607ZM928.797 186.209L928.775 182.563L929.94 182.331V185.988L928.797 186.198V186.209ZM936.782 198.12L935.673 198.297V194.386L936.782 194.198V198.12ZM935.063 198.385L933.954 198.562V194.662L935.063 194.474V198.385ZM933.355 198.651L932.246 198.827V194.949L933.355 194.761V198.651ZM933.954 194.054L933.932 190.231L935.063 190.032V193.877L933.954 194.065V194.054ZM933.355 194.154L932.246 194.341V193.612L932.224 190.541L933.355 190.342V194.165V194.154ZM931.648 193.612V194.441L930.539 194.629V190.839L931.648 190.64V193.612ZM931.648 195.049V198.916L930.539 199.093V195.236L931.648 195.049ZM931.648 199.523V203.457L930.539 203.623V199.7L931.648 199.523ZM931.648 204.065V208.075L930.539 208.219V204.219L931.648 204.054V204.065ZM931.648 208.683V212.76L930.539 212.893V208.827L931.648 208.683ZM931.648 213.368V217.522L930.539 217.644V213.5L931.648 213.368ZM931.648 218.13V222.362L930.539 222.472V218.252L931.648 218.13ZM931.648 222.958V227.268L930.539 227.367V223.069L931.648 222.958ZM932.246 222.903L933.355 222.793V227.124L932.246 227.223V222.903ZM932.246 222.296V218.053L933.355 217.931V222.185L932.246 222.296ZM932.246 217.456V213.291L933.355 213.158V217.334L932.246 217.456ZM932.246 212.694V208.606L933.355 208.462V212.561L932.246 212.694ZM932.246 207.998V203.987L933.355 203.822V207.843L932.246 207.987V207.998ZM932.246 203.38V199.435L933.355 199.258V203.214L932.246 203.38ZM933.965 199.159L935.074 198.982V202.96L933.965 203.125V199.159ZM935.673 198.894L936.782 198.717V202.717L935.673 202.882V198.905V198.894ZM935.662 193.767L935.64 189.922L936.782 189.723V193.579L935.662 193.767ZM935.629 189.325L935.607 185.546L936.782 185.325V189.115L935.64 189.314L935.629 189.325ZM935.063 189.425L933.921 189.624L933.899 185.867L935.063 185.646V189.425ZM933.355 189.723L932.224 189.922L932.202 186.176L933.355 185.955V189.712V189.723ZM931.648 190.021L930.528 190.22L930.505 186.497L931.659 186.287V190.021H931.648ZM929.94 190.938V194.728L928.831 194.916V191.148L929.94 190.949V190.938ZM929.94 195.336V199.192L928.831 199.369V195.524L929.94 195.336ZM929.94 199.789V203.711L928.831 203.877V199.965L929.94 199.789ZM929.94 204.319V208.307L928.831 208.451V204.473L929.94 204.308V204.319ZM929.94 208.915V212.981L928.831 213.114V209.07L929.94 208.926V208.915ZM929.94 213.578V217.71L928.831 217.832V213.71L929.94 213.578ZM929.94 218.318V222.528L928.831 222.638V218.439L929.94 218.318ZM929.94 223.135V227.422L928.831 227.522V223.246L929.94 223.135ZM929.94 228.03V232.405L928.831 232.494V228.14L929.94 228.041V228.03ZM930.539 227.975L931.648 227.875V232.262L930.539 232.35V227.975ZM932.246 227.82L933.355 227.721V232.129L932.246 232.218V227.82ZM933.965 227.676L935.074 227.577V232.008L933.965 232.096V227.676ZM933.965 227.069V222.726L935.074 222.616V226.969L933.965 227.069ZM933.965 222.13V217.876L935.074 217.754V222.03L933.965 222.141V222.13ZM933.965 217.268V213.092L935.074 212.959V217.158L933.965 217.279V217.268ZM933.965 212.484V208.374L935.074 208.23V212.351L933.965 212.484ZM933.965 207.766V203.733L935.074 203.567V207.611L933.965 207.755V207.766ZM935.673 203.49L936.782 203.324V207.39L935.673 207.534V203.479V203.49ZM937.381 203.236L938.49 203.07V207.158L937.381 207.302V203.236ZM937.381 202.628V198.628L938.49 198.452V202.462L937.381 202.628ZM937.37 193.491L937.348 189.635L938.501 189.436V193.314L937.381 193.502L937.37 193.491ZM937.337 189.016L937.315 185.226L938.49 185.005V188.817L937.337 189.016ZM937.303 184.618L937.281 180.895L938.49 180.652V184.397L937.303 184.618ZM936.782 184.718L935.607 184.939L935.584 181.226L936.782 180.994V184.718ZM935.063 185.038L933.899 185.259L933.877 181.569L935.063 181.337V185.049V185.038ZM933.355 185.359L932.191 185.58L932.169 181.9L933.355 181.668V185.359ZM931.648 185.679L930.494 185.9L930.472 182.243L931.648 182.011V185.69V185.679ZM930.472 181.624L930.45 178.022L931.659 177.768V181.381L930.483 181.613L930.472 181.624ZM929.94 181.723L928.764 181.955L928.742 178.376L929.94 178.133V181.734V181.723ZM928.232 182.066L927.156 182.276V178.707L928.232 178.486V182.066ZM928.232 182.674V186.32L927.156 186.519V182.884L928.232 182.674ZM928.232 186.928V190.629L927.156 190.817V187.126L928.232 186.928ZM928.232 191.237V195.004L927.156 195.181V191.424L928.232 191.237ZM928.232 195.612V199.446L927.156 199.612V195.789L928.232 195.612ZM928.232 200.054V203.954L927.156 204.109V200.22L928.232 200.054ZM928.232 204.562V208.528L927.156 208.672V204.716L928.232 204.562ZM928.232 209.136V213.18L927.156 213.313V209.28L928.232 209.136ZM928.232 213.788V217.909L927.156 218.031V213.931L928.232 213.799V213.788ZM928.232 218.506V222.693L927.156 222.804V218.627L928.232 218.506ZM928.232 223.301V227.577L927.156 227.676V223.423L928.232 223.312V223.301ZM928.232 228.174V232.527L927.156 232.604V228.262L928.232 228.163V228.174ZM928.232 233.135V237.565L927.156 237.632V233.212L928.232 233.135ZM928.831 233.079L929.94 232.991V237.444L928.831 237.51V233.068V233.079ZM930.539 232.958L931.648 232.869V237.344L930.539 237.411V232.947V232.958ZM932.246 232.825L933.355 232.737V237.234L932.246 237.3V232.814V232.825ZM933.965 232.693L935.074 232.604V237.123L933.965 237.19V232.682V232.693ZM935.673 232.56L936.782 232.472V237.013L935.673 237.079V232.549V232.56ZM935.673 231.963V227.522L936.782 227.422V231.875L935.673 231.963ZM935.673 226.914V222.561L936.782 222.45V226.826L935.673 226.925V226.914ZM935.673 221.953V217.677L936.782 217.555V221.842L935.673 221.953ZM935.673 217.08V212.882L936.782 212.749V216.959L935.673 217.08ZM935.673 212.274V208.153L936.782 208.009V212.141L935.673 212.274ZM937.381 207.91L938.49 207.766V211.92L937.381 212.053V207.91ZM939.089 207.689L964.108 204.341V208.783L939.089 211.854V207.689ZM939.089 207.081V202.993L964.108 199.369V203.733L939.089 207.081ZM939.089 202.385V198.363L964.108 194.463V198.75L939.089 202.374V202.385ZM939.089 197.756V196.673L939.067 193.8L964.108 189.635V193.855L939.089 197.756ZM939.067 193.203L939.044 189.325L964.108 184.895V189.038L939.067 193.203ZM939.033 188.717L939.011 184.906L964.108 180.21V184.287L939.033 188.717ZM939 184.298L938.978 180.552L964.108 175.591V179.602L939.011 184.309L939 184.298ZM938.978 179.945L938.956 176.265L964.108 171.039V174.984L938.978 179.945ZM938.49 180.033L937.281 180.276L937.259 176.608L938.501 176.354V180.033H938.49ZM936.782 180.375L935.573 180.619L935.551 176.972L936.782 176.718V180.387V180.375ZM935.063 180.718L933.866 180.95L933.843 177.315L935.063 177.061V180.707V180.718ZM933.355 181.049L932.169 181.281L932.147 177.668L933.355 177.414V181.049ZM932.147 177.061L932.124 173.503L933.367 173.238V176.807L932.147 177.061ZM931.648 177.16L930.439 177.414L930.417 173.879L931.648 173.613V177.171V177.16ZM929.94 177.514L928.742 177.768L928.72 174.243L929.94 173.978V177.514ZM928.232 177.867L927.156 178.088V174.575L928.232 174.343V177.867ZM927.156 238.239L928.232 238.173V242.692L927.156 242.747V238.239ZM928.831 238.129L929.94 238.062V242.604L928.831 242.659V238.129ZM930.539 238.018L931.648 237.952V242.515L930.539 242.57V238.018ZM932.246 237.908L933.355 237.841V242.427L932.246 242.482V237.908ZM933.965 237.797L935.074 237.731V242.338L933.965 242.394V237.797ZM935.673 237.687L936.782 237.621V242.25L935.673 242.305V237.687ZM937.381 237.576L938.49 237.51V242.162L937.381 242.217V237.587V237.576ZM939.089 237.477L964.108 235.875V240.836L939.089 242.129V237.477ZM939.089 236.869V232.306L964.108 230.405V235.278L939.089 236.88V236.869ZM938.49 236.913L937.381 236.98V232.439L938.49 232.35V236.913ZM937.381 231.831V227.367L938.49 227.268V231.742L937.381 231.831ZM937.381 226.77V222.395L938.49 222.284V226.671L937.381 226.77ZM937.381 221.787V217.489L938.49 217.368V221.677L937.381 221.787ZM937.381 216.881V212.661L938.49 212.528V216.76L937.381 216.881ZM939.089 212.451L964.108 209.379V213.898L939.089 216.683V212.44V212.451ZM938.945 175.646L938.923 172.022L964.108 166.542V170.42L938.945 175.646ZM938.49 175.746L937.248 176L937.226 172.398L938.49 172.122V175.746ZM936.782 176.1L935.551 176.354L935.529 172.763L936.793 172.486V176.088L936.782 176.1ZM935.063 176.453L933.843 176.707L933.821 173.138L935.074 172.862V176.453H935.063ZM933.81 172.52L933.788 169.006L935.063 168.719V172.254L933.81 172.531V172.52ZM933.355 172.619L932.113 172.884L932.091 169.382L933.355 169.094V172.608V172.619ZM931.648 172.995L930.417 173.26L930.394 169.779L931.648 169.492V172.995ZM929.94 173.359L928.709 173.625L928.687 170.155L929.94 169.868V173.348V173.359ZM928.232 173.735L927.156 173.967V170.509L928.232 170.266V173.735ZM927.156 243.344L928.232 243.289V247.896L927.156 247.94V243.344ZM928.831 243.256L929.94 243.2V247.83L928.831 247.874V243.256ZM930.539 243.167L931.648 243.112V247.764L930.539 247.808V243.167ZM932.246 243.079L933.355 243.023V247.697L932.246 247.741V243.079ZM933.965 242.99L935.074 242.935V247.631L933.965 247.675V242.99ZM935.673 242.902L936.782 242.847V247.565L935.673 247.609V242.902ZM937.381 242.814L938.49 242.758V247.498L937.381 247.543V242.814ZM939.089 242.725L964.108 241.432V246.493L939.089 247.465V242.714V242.725ZM964.773 235.93L970.95 237.355V242.018L964.773 240.869V235.93ZM970.95 236.748L964.773 235.322V230.483L970.95 232.173V236.748ZM939.089 231.698V227.223L964.108 225.025V229.798L939.089 231.698ZM939.089 226.616V222.218L964.108 219.721V224.417L939.089 226.616ZM939.089 221.622V217.301L964.108 214.517V219.124L939.089 221.622ZM964.773 209.523L981.208 216.804V220.594L964.773 213.987V209.523ZM964.773 208.86V204.484L981.208 212.429V216.141L964.773 208.86ZM964.773 203.822V199.534L981.208 208.131V211.766L964.773 203.822ZM964.773 198.849V194.64L981.208 203.877V207.435L964.773 198.838V198.849ZM964.773 193.955V189.833L981.208 199.7V203.192L964.773 193.955ZM964.773 189.137V185.093L981.208 195.59V199.004L964.773 189.126V189.137ZM964.773 184.386V180.431L981.208 191.546V194.894L964.773 184.397V184.386ZM964.773 179.701V175.823L981.208 187.546V190.817L964.773 179.701ZM964.773 175.083V171.282L981.208 183.602V186.806L964.773 175.083ZM964.773 170.531V166.807L981.208 179.724V182.861L964.773 170.542V170.531ZM938.911 171.415L938.889 167.846L964.108 162.111V165.923L938.911 171.404V171.415ZM938.49 171.503L937.215 171.779L937.193 168.233L938.49 167.934V171.503ZM936.782 171.879L935.518 172.155L935.496 168.619L936.782 168.332V171.879ZM935.485 168.001L935.463 164.553L936.782 164.244V167.702L935.496 168.001H935.485ZM935.063 168.1L933.788 168.387L933.766 164.962L935.074 164.653V168.1H935.063ZM933.355 168.487L932.08 168.774L932.058 165.36L933.355 165.05V168.476V168.487ZM931.648 168.873L930.383 169.161L930.361 165.769L931.648 165.459V168.873ZM929.94 169.271L928.687 169.558L928.664 166.177L929.94 165.879V169.271ZM928.232 169.658L927.156 169.901V166.531L928.232 166.277V169.658ZM927.156 248.537L928.232 248.493V249.675L927.156 249.708V248.526V248.537ZM928.831 248.482L929.94 248.438V249.631L928.831 249.664V248.471V248.482ZM930.539 248.404L931.648 248.36V249.565L930.539 249.598V248.404ZM932.246 248.338L933.355 248.294V249.498L932.246 249.531V248.327V248.338ZM933.965 248.272L935.074 248.228V249.443L933.965 249.476V248.261V248.272ZM935.673 248.205L936.782 248.161V249.388L935.673 249.421V248.205ZM937.381 249.41V248.15L938.49 248.106V249.52L937.381 249.41ZM939.089 248.073L964.108 247.101V252.26L953.572 252.537V250.968L953.273 250.935L939.089 249.565V248.073ZM953.572 253.133L964.108 252.857V258.128L953.572 258.271V253.144V253.133ZM964.773 252.89L967.035 253.1V258.249L964.773 258.139V252.89ZM967.346 244.25H967.024V246.846L964.762 246.526V241.477L970.939 242.626V244.084L967.335 244.239L967.346 244.25ZM971.615 244.073V241.653L988.051 240.825V245.996L975.22 246.482V243.907H974.876L971.615 244.062V244.073ZM988.051 246.592V251.896L975.22 252.227V247.09L988.051 246.603V246.592ZM975.22 252.824L988.051 252.493V257.929L975.22 258.094V252.824ZM988.716 240.891L1005.15 244.78V248.99L988.716 246.04V240.891ZM988.051 234.571L971.615 235.599V230.892L988.051 229.676V234.582V234.571ZM971.26 230.251L970.95 230.273V231.555L964.773 229.853V225.102L979.123 229.665L971.249 230.251H971.26ZM964.773 214.627L981.208 221.235V225.113L964.773 219.202V214.639V214.627ZM981.208 178.95L964.773 166.034V162.377L981.208 175.867V178.939V178.95ZM964.108 161.493L938.889 167.227L938.867 163.758L964.108 157.769V161.493ZM938.49 167.327L937.193 167.625L937.17 164.167L938.49 163.857V167.338V167.327ZM937.159 163.482L936.782 107.971L938.49 109.728V163.161L937.159 163.482ZM936.782 163.57L935.463 163.879L935.074 106.214L936.782 107.971V163.57ZM935.063 163.979L933.755 164.288L933.355 104.469L935.063 106.225V163.99V163.979ZM933.355 164.388L932.058 164.697L931.648 102.712L933.355 104.469V164.388ZM931.648 164.785L930.361 165.095L929.94 100.955L931.648 102.712V164.796V164.785ZM929.94 165.194L928.664 165.492L928.232 99.1872L929.94 100.944V165.194ZM928.232 165.603L926.968 165.901L926.524 97.4414L928.232 99.1982V165.603ZM926.513 166.001H926.48V249.741L925.404 249.774V190.53L924.805 95.6736L926.513 97.4304V166.001ZM924.805 190.53V249.797L923.696 249.83V189.756L923.097 93.9168L924.805 95.6736V190.53ZM923.097 189.767V249.863L921.988 249.896V188.994L921.389 92.171L923.097 93.9278V189.767ZM921.389 188.994V249.918H921.012L920.691 249.94V255.697L920.314 255.675V242.57H920.281V188.22L919.682 90.4032L921.389 92.16V188.994ZM918.994 261.939V256.216L922.798 256.404V261.984L918.994 261.939ZM918.395 255.586V258.669L913.904 258.525V255.365H913.615L908.858 255.111H908.547V258.36L889.539 257.752V252.006L919.659 253.918V255.653L918.717 255.608L918.406 255.586H918.395ZM913.294 255.929V261.862L909.135 261.807V255.719L913.294 255.929ZM873.304 249.344H873.271L862.17 249.797V246.99L888.863 245.631V251.388L886.545 251.465V250.239L886.201 250.216L873.304 249.344ZM919.648 243.156V247.918L889.528 245.045V239.333L919.648 243.156ZM889.528 245.653L919.648 248.526V253.321L889.528 251.41V245.664V245.653ZM886.545 252.073L888.863 251.995V257.752L886.545 257.796V252.084V252.073ZM919.682 188.231V242.504L918.573 242.361V187.458L917.974 88.6574L919.682 90.4142V188.231ZM917.963 187.458V242.283L916.854 242.14V186.684L916.255 86.8896L917.963 88.6464V187.447V187.458ZM916.255 186.696V242.073L915.146 241.93V185.922L914.547 85.1439L916.255 86.9007V186.696ZM914.547 185.922V241.852L913.438 241.709V84.0058L914.547 85.1439V185.922ZM912.839 241.631L907.738 240.979V86.0388L912.839 83.7296V241.631ZM907.139 130.489V240.913L902.038 240.261V88.6243L907.738 86.0499L907.139 130.489ZM901.439 132.423V240.184L896.337 239.532V91.1987L902.038 88.6243L901.439 132.423ZM895.739 134.356V239.466L890.648 238.814V93.7842L896.349 91.2098L895.75 134.367L895.739 134.356ZM888.863 239.311V245.034L862.17 246.393V241.123L888.863 239.322V239.311ZM864.709 240.283V187.314L866.24 187.845V240.184L864.709 240.283ZM864.099 240.328L862.569 240.427V186.585L864.099 187.115V240.328ZM861.97 240.471H861.826L861.515 240.504V249.83L860.44 249.874V185.856L861.97 186.386V240.482V240.471ZM859.83 249.896L858.299 249.962V185.115L859.83 185.646V249.907V249.896ZM857.689 249.984L856.159 250.051V184.375L857.689 184.906V249.984ZM855.205 250.802L872.927 250.084V263.807H855.205V250.813V250.802ZM873.648 250.095L885.824 250.924V263.807H873.648V250.095ZM886.545 258.382L888.863 258.337V263.796H886.545V258.382ZM889.528 258.349L908.536 258.956V262.404H908.836L913.604 262.47H913.904V259.122L918.395 259.266V262.525H918.695L919.648 262.536V263.785H889.528V258.337V258.349ZM920.314 262.558H920.691V263.807H920.314V262.558ZM921.345 262.569L923.097 262.591H923.397V255.829H923.108L921.334 255.73V250.581L936.76 250.051V263.807H921.334V262.58L921.345 262.569ZM937.436 250.073L952.907 251.564V263.796H937.436V250.073ZM953.572 258.868L964.108 258.724V263.796H953.572V258.857V258.868ZM964.773 258.735L967.035 258.846V261.575H967.368L970.95 261.553V263.796H964.773V258.735ZM971.615 261.553L974.898 261.531H975.231V258.702L988.062 258.536V263.807H971.627V261.553H971.615ZM988.716 258.547L998.819 259.166V263.807H988.716V258.547ZM999.163 249.752H998.808V253.155L988.705 251.94V246.659L1005.04 249.587L999.152 249.763L999.163 249.752ZM1005.58 234.936L1004.02 234.394V113.374L1009.5 111.684V249.443L1005.81 249.553V235.013L1005.58 234.936ZM1016.04 110.778L1017 112.777V250.161L1016.04 249.984V110.789V110.778ZM1017.43 113.695L1018.38 115.705V250.437L1017.43 250.25V113.695ZM1018.81 116.611L1019.7 118.468V250.68L1018.81 250.515V116.611ZM1020.13 119.385L1020.95 121.108V250.924L1020.13 250.769V119.385ZM1021.39 122.014L1022.15 123.617V251.145L1021.39 251.001V122.014ZM1022.58 124.534L1023.29 126.025V251.366L1022.58 251.233V124.534ZM1023.74 126.942L1024.4 128.335V251.575L1023.74 251.454V126.942ZM992.098 117.053L997.532 115.385V232.151L992.098 230.262V117.053ZM980.731 229.544L964.773 224.472V219.821L981.208 225.732V229.499L980.731 229.533V229.544ZM981.208 175.105L964.773 161.614V158.079L981.208 172.144V175.105ZM940.198 162.763L938.856 163.084L938.49 109.739L940.198 111.496V162.774V162.763ZM879.237 98.9441L884.937 96.3697L884.338 138.234V238.968L879.237 239.311V98.9441ZM868.347 240.04L866.839 240.14V188.055L868.347 188.574V240.04ZM844.437 66.5704L836.375 59.2891L827.935 52.4608V48.0743L844.426 61.742V66.5704H844.437ZM827.336 48.0081V115.407L824.309 116.844L808.262 65.7638L808.14 65.3771L807.807 65.5981L801.719 69.6973V65.6755L827.336 48.0081ZM801.719 199.612L820.472 195.38V202.661L808.04 205.147L801.719 203.822V199.601V199.612ZM786.393 200.617L776.412 198.529H776.268L759.644 202.672V124.954L786.404 136.29V200.617H786.393ZM732.274 140.212L759.034 125.02V202.827L748.909 205.346L748.654 205.413V233.002L732.274 231.51V140.223V140.212ZM721.406 230.505L719.587 230.339V99.828L718.867 17.1591L721.417 18.8607V230.505H721.406ZM667.288 40.34L671.912 33.6112L671.446 181.613L667.288 180.795V40.34ZM632.599 58.6925V76.2825L632.787 76.3599L654.712 85.5306V178.309L646.45 176.674H646.35L633.098 178.298V148.775L632.854 148.709L629.493 147.858V57.3555L632.599 58.6925ZM620.577 89.3204L628.883 75.7632V147.726L620.577 145.626V89.3204ZM615.143 145.527V180.519L598.819 182.53V164.597L615.143 145.527ZM598.176 182.607L591.61 183.414L591.322 183.447V246.062L587.74 245.929H587.64L585.511 246.449V210.617L585.212 210.584L574.865 209.49V118.932L598.165 125.528V182.585L598.176 182.607ZM557.775 159.106L574.233 120.103V209.434L564.152 208.363V190.673L563.864 190.629L557.775 189.778V159.106ZM525.271 209.158L529.552 189.314V241.278L525.271 241.101V209.147V209.158ZM500.685 241.112L495.883 241.311H495.561V251.266L491.037 251.366H490.715V260.094H491.048L495.561 260.05V263.796H465.441V219.368L474.269 227.809V251.708L468.424 251.841H468.103V260.194H468.435L474.269 260.138V263.674H474.934V260.138L478.061 260.116H478.394V251.62H478.061L474.934 251.697V193.38L487.033 191.778V263.685H487.699V193.347L500.685 230.339V241.123V241.112ZM18.9304 246.371L18.0765 246.338L17.5552 138.356L21.6585 139.406V201.976L20.0394 203.159L19.9063 203.258V250.714L19.2409 250.824V246.382H18.9304V246.371ZM4.39158 245.841H4.30286L3.54875 246.051V147.339L5.10133 144.621V245.863L4.40267 245.841H4.39158ZM5.56711 143.781L7.19732 140.919V245.94L5.56711 245.885V143.781ZM7.68527 140.08L9.33766 137.174V246.029L7.68527 245.974V140.091V140.08ZM9.9476 136.422L13.452 137.317V246.172L9.9476 246.051V136.422ZM13.9621 246.184L13.4409 137.306L17.5441 138.356V246.316L13.9621 246.184ZM50.104 148.444L49.3831 142.986L62.702 128.611L49.2833 142.234L48.5847 136.942L60.7724 123.031L48.4848 136.179L47.8084 131.053L58.9315 117.672L47.6975 130.268L47.0432 125.285L57.1571 112.512L46.9434 124.489L46.3112 119.661L55.4604 107.562L46.2003 118.854L45.5793 114.159L53.808 102.778L45.4684 113.33L44.8695 108.778L52.2332 98.1817L44.7697 107.949L44.182 103.529L50.7028 93.751L44.0711 102.679L43.5055 98.3806L49.239 89.464L43.3946 97.5298L42.8401 93.3533L47.8084 85.3317L42.7292 92.4915L42.1969 88.4254L46.4443 81.343L42.086 87.5636L41.5648 83.608L45.1135 77.4758L41.4539 82.7352L40.9437 78.8791L43.8271 73.7302L40.8328 78.0062L40.3338 74.2385L42.585 70.1061L40.2229 73.3987L39.735 69.7084L41.3762 66.6036L39.6241 68.9018L39.1472 65.2666L40.2007 63.2115L39.0474 64.5264L38.5705 60.9133L39.0696 59.9189L38.4929 60.3498L38.0049 56.6484L64.7647 1.7347V142.389L50.9357 154.808L50.1927 149.184L64.6871 134.445L50.0929 148.455L50.104 148.444ZM61.6929 185.9L64.7758 183.955V186.43L61.6929 185.9ZM64.7647 142.411V150.521L51.8007 161.316L51.0355 155.515L64.7647 142.411ZM64.7647 150.554V158.753L52.6768 168.023L51.8894 162.034L64.7647 150.565V150.554ZM64.7647 158.775V167.05L53.5862 174.873L52.7766 168.697L64.7758 158.786L64.7647 158.775ZM64.7647 167.083V175.448L54.5066 181.911L53.6638 175.536L64.7647 167.083ZM54.5954 182.552L64.7647 175.47V183.922L61.3491 185.834L54.8837 184.718L54.5954 182.552ZM91.8794 191.8V197.468L47.5866 190.463V184.132L91.8794 191.8ZM113.194 241.797V121.396L122.255 124.644V242.305L113.194 241.797ZM112.529 241.764L108.226 241.521V125.119L112.529 121.617V241.753V241.764ZM107.616 241.488L103.502 241.256V128.964L107.616 125.616V241.488ZM102.903 241.223L99.0768 241.013H99.0102H98.9991V132.633L102.914 129.45V241.223H102.903ZM98.3892 241.101L94.663 241.631V136.157L98.3892 133.13V241.112V241.101ZM94.0641 241.72L92.5448 241.93V191.237L92.2676 191.192L90.5154 190.883V139.527L94.0641 136.643V241.72ZM78.5494 249.388V249.752L78.5051 249.399L73.0378 249.962L72.7162 249.995V255.255L47.6087 254.747V246.327L91.9016 248.073V249.83L78.5605 249.377L78.5494 249.388ZM45.0581 249.929L43.6608 249.885V246.913L46.9323 246.371V254.758L45.3797 254.89V249.94H45.0581V249.929ZM22.8562 201.91V206.584L20.5606 208.109V203.578L22.8562 201.899V201.91ZM25.9059 199.7V204.562L23.4661 206.186V201.479L25.9059 199.7ZM23.4661 242.825V236.847L25.9059 236.063V242.228L23.4661 242.825ZM25.9059 242.847V249.255L23.4661 249.664V243.443L25.9059 242.847ZM46.9323 228.693L43.6608 229.743V222.516L46.9323 221.224V228.693ZM39.3246 223.577L36.3636 224.748V218.307L39.3246 216.926V223.577ZM39.9346 216.649L43.0619 215.202V222.119L39.9346 223.345V216.649ZM35.7648 224.98L32.948 226.085V219.887L35.7648 218.583V224.98ZM32.338 226.328L29.6543 227.389V221.423L32.338 220.174V226.328ZM29.0554 227.621L26.5048 228.627V222.881L29.0554 221.699V227.621ZM25.9059 228.87L23.4661 229.831V224.306L25.9059 223.168V228.87ZM25.9059 229.511V235.433L23.4661 236.217V230.472L25.9059 229.511ZM26.5048 229.278L29.0554 228.273V234.427L26.5048 235.245V229.278ZM29.6654 228.03L32.3491 226.969V233.367L29.6654 234.228V228.03ZM32.948 226.737L35.7648 225.632V232.284L32.948 233.19V226.748V226.737ZM36.3636 225.389L39.3246 224.218V231.124L36.3636 232.074V225.378V225.389ZM39.9346 223.986L43.0619 222.76V229.941L39.9346 230.947V223.997V223.986ZM46.9323 220.583L43.6608 221.876V214.915L46.9323 213.39V220.583ZM46.9323 212.738L43.6608 214.263V207.556L46.9323 205.81V212.738ZM43.0619 214.539L39.9346 215.986V209.534L43.0619 207.865V214.528V214.539ZM39.3246 216.263L36.3636 217.644V211.434L39.3246 209.854V216.263ZM35.7648 217.931L32.948 219.235V213.268L35.7648 211.766V217.931ZM32.338 219.511L29.6543 220.76V215.014L32.338 213.589V219.511ZM29.0554 221.047L26.5048 222.229V216.705L29.0554 215.346V221.047ZM25.9059 222.505L23.4661 223.643V218.329L25.9059 217.025V222.505ZM22.8562 223.92L20.5606 224.991V219.876L22.8562 218.649V223.92ZM22.8562 224.583V230.063L20.5606 230.969V225.654L22.8562 224.583ZM22.8562 230.715V236.416L20.5606 237.156V231.621L22.8562 230.715ZM22.8562 237.035V242.968L20.5606 243.532V237.775L22.8562 237.035ZM26.5048 235.875L29.0554 235.057V241.455L26.5048 242.084V235.875ZM29.6654 234.858L32.3491 233.996V240.648L29.6654 241.3V234.858ZM32.948 233.809L35.7648 232.903V239.808L32.948 240.493V233.798V233.809ZM36.3636 232.715L39.3246 231.765V238.946L36.3636 239.676V232.715ZM39.9346 231.566L43.0619 230.56V238.029L39.9346 238.792V231.566ZM43.6608 230.372L46.9323 229.323V237.079L43.6608 237.875V230.361V230.372ZM47.5977 229.234L91.8905 232.615V239.609L47.5977 237.035V229.234ZM47.5977 228.627V221.102L91.8905 225.246V231.997L47.5977 228.627ZM47.5977 220.506V213.246L91.8905 218.141V224.649L47.5977 220.506ZM47.5977 212.65V205.634L91.8905 211.258V217.544L47.5977 212.65ZM47.5977 205.026V198.242L91.8905 204.562V210.639L47.5977 205.015V205.026ZM46.9323 205.125L43.6608 206.871V200.407L46.9323 198.441V205.125ZM43.0619 207.191L39.9346 208.86V202.65L43.0619 200.772V207.191ZM39.3246 209.18L36.3636 210.76V204.783L39.3246 203.004V209.18ZM35.7648 211.081L32.948 212.583V206.838L35.7648 205.147V211.081ZM32.338 212.904L29.6543 214.329V208.805L32.338 207.191V212.904ZM29.0554 214.661L26.5048 216.02V210.705L29.0554 209.169V214.661ZM25.9059 216.34L23.4661 217.644V212.528L25.9059 211.07V216.351V216.34ZM22.8562 217.964L20.5606 219.191V214.274L22.8562 212.893V217.964ZM20.5606 213.578V208.838L22.8562 207.313V212.197L20.5606 213.578ZM20.5606 244.15L22.8562 243.587V249.763L20.5606 250.15V244.162V244.15ZM26.5048 249.156V242.692L29.0554 242.062V248.725L26.5048 249.145V249.156ZM29.6654 241.919L32.3491 241.267V248.183L29.6654 248.625V241.919ZM32.948 241.123L35.7648 240.438V247.62L32.948 248.084V241.123ZM36.3636 240.283L39.3246 239.554V247.023L36.3636 247.52V240.283ZM39.9346 239.41L43.0619 238.648V246.404L39.9346 246.924V239.41ZM43.6608 238.504L46.9323 237.709V245.775L43.6608 246.316V238.504ZM47.5977 237.632L91.8905 240.206V247.476L47.5977 245.73V237.632ZM91.8794 203.954L47.5866 197.634V191.071L91.8794 198.076V203.965V203.954ZM46.9323 197.745L43.6608 199.711V193.48L46.9323 191.303V197.756V197.745ZM43.0619 200.065L39.9346 201.943V195.955L43.0619 193.877V200.076V200.065ZM39.3246 202.308L36.3636 204.087V198.319L39.3246 196.352V202.308ZM35.7648 204.451L32.948 206.142V200.606L35.7648 198.728V204.451ZM32.338 206.495L29.6543 208.109V202.783L32.338 201.004V206.506V206.495ZM29.0554 208.473L26.5048 210.009V204.882L29.0554 203.181V208.473ZM25.9059 210.363L23.4661 211.821V206.893L25.9059 205.269V210.352V210.363ZM29.0554 249.344V249.454L28.5009 249.432L29.0554 249.344ZM29.6654 249.244L32.3491 248.802V249.553L29.6654 249.476V249.255V249.244ZM32.948 248.692L35.7648 248.228V249.653L32.948 249.565V248.692ZM36.3636 248.128L39.3246 247.631V249.752L36.3636 249.664V248.128ZM39.9346 247.531L43.0619 247.012V249.863L39.9346 249.763V247.52V247.531ZM89.9054 190.784L86.512 190.198V142.776L89.9054 140.013V190.773V190.784ZM85.9131 190.099L82.6749 189.535V145.914L85.9131 143.273V190.099ZM82.0649 189.425L78.993 188.894V148.908L82.0649 146.4V189.425ZM46.9323 190.574L43.6608 192.75V186.773L46.9323 184.386V190.574ZM43.0619 193.148L39.9346 195.225V189.48L43.0619 187.204V193.148ZM39.3246 195.634L36.3636 197.601V192.076L39.3246 189.922V195.634ZM35.7648 197.999L32.948 199.877V194.573L35.7648 192.518V197.999ZM32.338 200.275L29.6543 202.054V196.96L32.338 195.004V200.275ZM29.0554 202.462L26.5048 204.164V199.269L29.0554 197.413V202.474V202.462ZM21.9579 201.755L21.6585 139.406L25.7617 140.455V198.993L21.9579 201.766V201.755ZM27.6914 250.128V263.796H12.5426V252.548L27.6914 250.117V250.128ZM28.3568 250.084L44.7254 250.581V263.807H28.3568V250.095V250.084ZM45.3797 255.498L46.9323 255.365V263.796H45.3797V255.487V255.498ZM47.5977 255.343L72.7051 255.851V263.807H47.5977V255.343ZM73.4259 250.636L78.1724 250.15V263.807H73.4259V250.636ZM78.8932 250.117L95.5169 250.68V263.807H78.8932V250.128V250.117ZM95.894 249.973L92.5448 249.863V242.604L98.7219 241.731V263.807H96.2488V249.984H95.894V249.973ZM99.3873 241.687L129.507 243.366V263.796H99.3873V241.687ZM129.851 242.725L122.853 242.338V124.865L131.936 128.125V263.807H130.162V242.747L129.851 242.725ZM132.546 128.335L141.629 131.594V263.807H132.546V128.346V128.335ZM142.227 131.804L151.31 135.063V202.496L146.952 203.744L146.697 203.822V263.796H142.216V131.804H142.227ZM151.92 202.33V135.284L161.003 138.544V199.733L151.92 202.341V202.33ZM147.406 204.352L180.909 194.75V263.796H147.406V204.341V204.352ZM181.607 194.717L208.267 200.352V218.738L190.912 216.152L190.568 216.097V254.017H190.856L208.267 254.603V263.796H181.607V194.717ZM221.997 141.759V147.891L193.573 159.46V153.957L221.997 141.759ZM193.341 142.168L197.444 140.201V145.571L193.341 147.438V142.168ZM221.997 122.003V127.826L198.641 138.964L198.475 139.041V139.704L197.821 139.45L197.699 139.406L197.577 139.461L194.283 141.041V135.848L221.997 121.992V122.003ZM239.308 180.486L239.064 180.552V181.094L222.596 176.1V169.514L248.391 177.978L239.308 180.486ZM239.729 237.09V181.049L241.836 180.464V237.3L239.729 237.09ZM236.901 236.814H236.835L229.992 237.433L229.66 237.466V239.002L222.607 238.372V230.715L239.075 232.637V237.024L236.901 236.814ZM213.535 258.79V244.99L226.699 244.051V258.536L213.535 258.79ZM212.87 255.641L208.966 255.763V248.183L212.87 247.951V255.653V255.641ZM221.997 176.1L188.406 186.452V180.718L221.997 169.514V176.1ZM208.966 224.516L221.997 222.594V230.107L208.966 231.654V224.516ZM222.607 206.783L239.075 210.064V216.848L222.607 214.009V206.783ZM221.997 221.986L208.966 223.909V216.904L221.997 214.616V221.986ZM222.607 214.616L239.075 217.456V224.373L222.607 221.986V214.616ZM239.064 209.457L222.596 206.175V199.081L239.064 202.805V209.457ZM221.997 214.009L208.966 216.296V209.423L221.997 206.783V214.009ZM208.966 232.262L221.997 230.715V238.372L208.966 239.543V232.262ZM222.607 222.594L239.075 224.98V232.03L222.607 230.096V222.583V222.594ZM239.064 188.01L222.596 183.436V176.729L239.064 181.723V188.01ZM239.064 188.629V195.038L222.596 190.883V184.055L239.064 188.629ZM239.064 195.656V202.186L222.596 198.463V191.502L239.064 195.656ZM221.997 206.175L208.966 208.816V202.076L221.997 199.081V206.175ZM208.267 254.006L191.167 253.443V216.804L208.267 219.345V254.006ZM213.18 244.349L212.87 244.371V247.344L208.966 247.576V240.14L221.997 238.968V243.72L213.18 244.349ZM222.607 243.675V238.968L229.66 239.598V247.211L227.353 247.078V243.344L226.998 243.366L222.596 243.675H222.607ZM227.353 247.675L229.66 247.808V255.575L227.353 255.509V247.675ZM198.043 140.19L198.475 140.356V145.096L198.043 145.295V140.19ZM199.085 144.82V139.428L221.997 128.489V134.411L199.085 144.82ZM222.607 141.107V135.074L252.782 148.543V153.88L222.607 141.107ZM252.782 154.532V159.968L222.607 147.891V141.759L252.782 154.532ZM222.607 134.423V128.489L252.782 142.643V147.891L222.607 134.423ZM252.782 160.609V166.133L222.607 154.775V148.532L252.782 160.609ZM222.607 155.427L252.782 166.785V172.409L222.607 161.78V155.427ZM252.782 141.98L222.607 127.826V121.992L252.782 136.82V141.969V141.98ZM221.997 135.074V141.107L194.616 152.863V147.516L221.997 135.085V135.074ZM221.997 168.884L188.406 180.088V174.453L221.997 162.421V168.884ZM188.406 187.082L221.997 176.729V183.436L188.406 192.927V187.082ZM221.997 198.463L208.966 201.457V199.789L208.689 199.733L198.397 197.557L221.986 191.502V198.463H221.997ZM208.966 256.36L212.87 256.238V259.453H213.202L221.997 259.277V263.796H208.966V256.36ZM222.607 259.277L227.031 259.188H227.353V256.106L229.66 256.172V263.796H222.607V259.266V259.277ZM230.381 238.118L236.491 237.565V263.807H230.381V238.118ZM237.223 237.565L243.345 238.173V263.807H237.223V237.576V237.565ZM243.733 237.488L242.435 237.355V180.298L244.565 179.713V263.796H244.054V237.51L243.733 237.477V237.488ZM245.174 179.547L247.304 178.961V263.807H245.174V179.558V179.547ZM247.914 178.795L250.043 178.21V263.807H247.914V178.795ZM250.642 178.033L252.771 177.447V249.443L251.551 249.498H251.23V261.597H251.562L252.771 261.586V263.807H250.642V178.044V178.033ZM251.906 260.934V250.15L264.804 249.553V260.801L251.906 260.934ZM261.587 249.045V175.017L263.717 174.431V248.946L261.587 249.045ZM260.989 249.067L258.859 249.167V175.768L260.989 175.182V249.067ZM258.249 249.2L256.12 249.299V176.53L258.249 175.945V249.2ZM255.51 249.321L253.381 249.421V177.282L255.51 176.696V249.321ZM253.381 261.575L255.51 261.553V263.796H253.381V261.575ZM256.12 261.553L258.249 261.531V263.807H256.12V261.553ZM258.848 261.52L260.978 261.497V263.796H258.848V261.52ZM261.587 261.497L263.717 261.475V263.807H261.587V261.497ZM264.327 261.464H265.136L265.469 261.453V248.857L265.125 248.879L264.338 248.913V174.265L266.445 173.68V263.796H264.338V261.464H264.327ZM267.088 173.724L273.298 176.022V263.807H267.088V173.724ZM273.897 176.243L280.13 178.552V263.807H273.897V176.243ZM280.74 178.773L286.972 181.083V250.404L283.08 250.559H282.725V263.796H280.729V178.773H280.74ZM362.184 159.426V165.15L335.49 147.648V140.776L362.184 159.438V159.426ZM372.453 220.903V229.035L349.175 230.903V223.235L372.453 220.892V220.903ZM423.743 236.836V241.764L373.107 229.091V220.992L423.743 236.825V236.836ZM405.789 254.028H405.434V257.365L373.107 255.343V247.189L423.743 253.52V253.631L405.789 254.017V254.028ZM366.542 251.421L352.857 250.239H352.813L349.164 250.36V248.106L372.442 247.167V255.332L366.875 255.443V251.443L366.542 251.41V251.421ZM339.15 250.692H338.795V253.951L335.49 253.763V244.294L348.51 245.797V250.393L339.15 250.703V250.692ZM304.173 240.007H304.117L294.458 240.637V237.521L334.836 234.449V243.664L320.475 244.405V241.885L320.175 241.852L304.161 240.007H304.173ZM348.51 236.096L335.49 233.875V224.925L348.51 227.842V236.085V236.096ZM334.825 224.284L294.447 228.317V220.539L334.825 215.556V224.284ZM334.825 214.948L294.447 219.931V212.351L334.825 206.44V214.948ZM294.447 211.744V204.363L334.825 197.557V205.843L294.447 211.744ZM335.49 188.972L362.184 200.363V207.092L335.49 197.004V188.972ZM335.49 188.32V180.497L362.184 193.17V199.722L335.49 188.331V188.32ZM334.825 196.949L294.447 203.755V196.551L334.825 188.861V196.938V196.949ZM294.447 228.925L334.825 224.892V233.864L294.447 236.935V228.936V228.925ZM335.49 234.494L348.51 236.714V245.2L335.49 243.709V234.505V234.494ZM349.175 239.808L372.453 238.405V246.57L349.175 247.509V239.808ZM373.107 238.449L423.743 247.951V252.923L373.107 246.592V238.449ZM423.743 247.344L373.107 237.841V229.709L423.743 242.383V247.355V247.344ZM372.453 237.808L349.175 239.212V231.521L372.453 229.654V237.819V237.808ZM348.809 222.627L348.51 222.66V227.245L335.49 224.329V215.622L357.626 221.743L348.809 222.627ZM335.49 197.645L362.184 207.733V214.65L335.49 205.899V197.656V197.645ZM362.184 178.53L335.49 163.393V156.134L362.184 172.475V178.53ZM362.184 171.768L335.49 155.438V148.355L362.184 165.857V171.768ZM362.184 179.215V185.436L335.49 171.514V164.078L362.184 179.215ZM362.184 186.11V192.485L335.49 179.812V172.188L362.184 186.11ZM334.825 188.253L294.447 195.944V188.916L334.825 180.364V188.242V188.253ZM320.475 245.012L334.836 244.272V253.752L320.475 254.128V245.012ZM359.267 221.566L335.49 214.992V206.517L362.184 215.268V221.268L359.267 221.566ZM351.959 151.471L348.477 149.04V61.4216L351.959 59.709V151.471ZM347.911 148.643L344.373 146.168V63.4546L348.488 61.4216L347.922 148.643H347.911ZM343.819 145.781L340.248 143.284V65.4766L344.362 63.4435L343.819 145.77V145.781ZM339.727 142.93L336.133 140.422V67.5096L340.248 65.4766L339.727 142.919V142.93ZM335.646 140.069L335.346 139.859L335.213 139.77L335.058 139.814L332.019 140.765V69.5426L336.133 67.5096L335.646 140.069ZM334.825 155.36L287.604 168.255V162.012L334.825 148.201V155.372V155.36ZM287.615 168.873L334.836 155.979V163.316L287.615 175.26V168.862V168.873ZM334.825 179.757L294.447 188.309V183.149L294.225 183.071L291.641 182.11L334.814 172.067V179.757H334.825ZM293.792 183.602V250.393L291.297 250.239H291.264L287.582 250.382V181.304L293.792 183.602ZM283.468 251.266L290.92 250.979V263.807H283.468V251.266ZM291.641 250.979L300.48 251.531V263.796H291.641V250.979ZM300.857 250.835L294.447 250.437V241.3L303.795 240.692V263.807H301.2V250.868L300.857 250.846V250.835ZM304.461 240.703L319.809 242.471V263.796H304.461V240.703ZM320.475 254.724L334.836 254.349V263.796H320.475V254.713V254.724ZM335.49 254.36L338.795 254.548V263.796H335.49V254.36ZM339.516 251.399L352.469 250.968V263.796H339.516V251.399ZM353.201 250.99L366.154 252.106V263.796H353.201V250.99ZM366.875 256.05L372.442 255.94V263.807H366.875V256.05ZM373.107 255.951L405.434 257.973V263.796H373.107V255.951ZM406.155 254.747L427.68 254.282V263.796H406.155V254.735V254.747ZM428.412 254.327L458.089 257.984V263.796H428.412V254.316V254.327ZM458.488 257.31L428.091 253.553H428.035L424.409 253.631V236.339L424.176 236.261L410.724 232.052V223.621L464.776 218.937V263.774H458.798V257.321L458.477 257.277L458.488 257.31ZM474.28 203.026V226.903L465.352 218.362L465.242 218.263H465.097L439.402 220.506V207.037L474.28 203.037V203.026ZM468.768 259.542V252.504L477.74 252.294V259.464L468.768 259.542ZM492.179 204.098L487.687 191.303L487.599 191.049L487.333 191.082L474.568 192.772L474.28 192.806V193.093V202.418L469.345 202.982V101.972L492.179 107.96V204.098ZM455.161 106.137L468.735 101.983V203.048L455.161 204.606V106.137ZM448.196 205.413L439.058 206.462L438.792 206.495V220.55L431.218 221.202V140.035L448.196 146.223V205.413ZM403.859 229.908V146.742L430.619 139.991V221.257L410.369 223.014L410.07 223.036V231.864L403.837 229.919H403.859V229.908ZM382.733 223.312L379.794 222.395L379.384 136.787V222.273L376.323 221.312L375.924 133.472V221.191L372.863 220.229H372.73L372.331 130.036V220.262L369.004 220.594L368.593 126.456V220.638L365.122 220.992L364.701 122.733V221.036L362.838 221.224V159.095L362.694 158.996L360.797 157.67L360.631 118.854V157.559L356.55 154.709L356.395 114.788V154.598L352.546 151.913V60.0957L382.722 98.6126V223.312H382.733ZM327.872 71.5867L332.019 69.5426L331.531 140.919L327.872 142.057V71.5867ZM334.825 140.588V147.571L287.604 161.382V155.305L334.825 140.588ZM287.615 175.89L334.836 163.946V171.459L290.632 181.734L287.615 180.619V175.89ZM249.444 177.68L222.596 168.873V162.41L252.771 173.039V176.762L249.433 177.68H249.444ZM252.782 136.168L222.607 121.34V115.606L252.782 131.108V136.168ZM221.997 115.606V121.34L202.778 130.953V125.661L221.997 115.617V115.606ZM202.179 131.24L201.325 131.66V126.666L202.179 127.031V131.229V131.24ZM200.726 126.721V131.97L196.49 134.091V128.942L200.726 126.732V126.721ZM195.891 134.389L193.407 135.627V130.832L195.891 131.903V134.389ZM192.808 130.854V135.925L188.406 138.124V133.152L192.808 130.854ZM189.326 138.334L193.684 136.157V141.339L192.908 141.715L189.326 143.428V138.345V138.334ZM192.731 142.455V147.703L188.394 149.67V144.521L192.731 142.455ZM188.893 150.112L189.038 150.046V150.156L188.893 150.112ZM189.637 149.781L194.017 147.792V153.129L189.637 155.007V149.781ZM192.975 154.222V159.714L188.406 161.57V156.189L192.975 154.222ZM188.982 161.979L189.991 161.57V162.299L188.982 161.99V161.979ZM190.59 161.316L221.997 148.532V154.775L190.59 166.796V161.305V161.316ZM221.997 155.427V161.78L188.406 173.823V168.288L221.997 155.427ZM188.406 193.546L221.997 184.055V190.883L197.078 197.269L188.394 195.435V193.546H188.406ZM170.673 196.96L161.612 199.557V138.765L170.673 142.013V196.971V196.96ZM92.1345 137.362L78.4607 148.488L78.3387 148.587V188.773L65.3858 186.53V0.950217L92.1456 16.7172V137.362H92.1345ZM38.016 61.1895L54.2627 184.607L47.3204 183.403L47.1873 183.381L47.0764 183.469L38.0271 190.065V61.1895H38.016ZM29.865 195.999L26.0501 198.783L25.7617 140.455L29.865 141.505V196.01V195.999ZM1.58585 150.775L3.0608 148.19V246.184L1.58585 246.581V150.775ZM4.7021 246.493L18.5977 246.99V250.924L12.1545 251.951L11.8772 251.995V263.796H4.7021V246.482V246.493ZM999.54 263.796V250.448L1012.33 250.073V263.796H999.54ZM1025.45 251.785L1024.82 251.664V129.252L1025.45 130.555V251.785Z" fill="url(#paint4_linear_89_41)"/>
<path d="M931.936 256.26L927.844 256.061L927.533 256.039V262.647H927.833L931.925 262.702H932.235V256.271H931.947L931.936 256.26ZM931.625 262.105L928.132 262.061V256.68L931.625 256.857V262.116V262.105Z" fill="url(#paint5_linear_89_41)"/>
<path d="M184.091 221.378L183.748 221.334V227.113L184.014 227.146L187.352 227.522L187.684 227.555V221.842L187.418 221.809L184.08 221.378H184.091ZM187.097 226.881L184.358 226.571V222.019L187.097 222.373V226.892V226.881Z" fill="url(#paint6_linear_89_41)"/>
<path d="M184.114 199.203L183.759 199.137V204.915L184.003 204.96L187.341 205.556L187.696 205.623V199.91L187.452 199.866L184.114 199.214V199.203ZM187.097 204.904L184.358 204.407V199.855L187.097 200.396V204.904Z" fill="url(#paint7_linear_89_41)"/>
<path d="M184.069 243.554L183.748 243.532V249.299H184.036L187.374 249.465H187.684V249.167V243.775H187.407L184.069 243.554ZM187.097 248.857L184.358 248.725V244.173L187.097 244.349V248.857Z" fill="url(#paint8_linear_89_41)"/>
<path d="M200.05 207.854L200.405 207.921V202.396L200.161 202.352L197.078 201.744L196.723 201.678V207.258L196.967 207.302L200.05 207.854ZM197.322 202.396L199.806 202.882V207.191L197.322 206.749V202.396Z" fill="url(#paint9_linear_89_41)"/>
<path d="M169.187 217.754L169.431 217.71V212.075L169.065 212.153L164.873 213.081L164.64 213.136V218.66L165.006 218.594L169.198 217.754H169.187ZM165.239 213.622L168.821 212.827V217.224L165.239 217.942V213.622Z" fill="url(#paint10_linear_89_41)"/>
<path d="M149.547 236.206L149.281 236.239V241.433L149.613 241.399L153.251 241.002L153.517 240.968V235.687L153.173 235.731L149.536 236.206H149.547ZM152.929 240.438L149.891 240.77V236.77L152.929 236.372V240.438Z" fill="url(#paint11_linear_89_41)"/>
<path d="M169.153 239.278L169.42 239.245V233.621L169.076 233.665L164.884 234.206L164.618 234.24V239.764L164.95 239.731L169.142 239.278H169.153ZM165.239 234.77L168.821 234.306V238.714L165.239 239.101V234.781V234.77Z" fill="url(#paint12_linear_89_41)"/>
<path d="M149.58 255.929H149.292V261.122H149.602L153.239 261.056H153.539V255.774H153.228L149.591 255.929H149.58ZM152.929 260.459L149.89 260.503V256.514L152.929 256.404V260.459Z" fill="url(#paint13_linear_89_41)"/>
<path d="M149.569 246.062L149.292 246.084V251.277L149.613 251.255L153.251 251.023L153.528 251.001V245.719L153.206 245.753L149.569 246.062ZM152.929 250.448L149.89 250.636V246.637L152.929 246.382V250.448Z" fill="url(#paint14_linear_89_41)"/>
<path d="M169.176 228.516L169.431 228.472V222.848L169.076 222.914L164.884 223.654L164.629 223.699V229.223L164.973 229.168L169.165 228.516H169.176ZM165.239 224.196L168.821 223.566V227.964L165.239 228.516V224.196Z" fill="url(#paint15_linear_89_41)"/>
<path d="M164.928 255.343H164.64V260.868H164.951L169.143 260.79H169.442V255.177H169.132L164.94 255.343H164.928ZM168.832 260.194L165.239 260.249V255.929L168.832 255.796V260.194Z" fill="url(#paint16_linear_89_41)"/>
<path d="M149.536 226.35L149.281 226.395V231.588L149.625 231.532L153.262 230.969L153.517 230.925V225.643L153.162 225.71L149.525 226.35H149.536ZM152.929 230.428L149.891 230.903V226.914L152.929 226.373V230.428Z" fill="url(#paint17_linear_89_41)"/>
<path d="M173.423 222.141L173.168 222.185V227.897L173.512 227.842L178.025 227.146L178.28 227.102V221.279L177.926 221.345L173.412 222.141H173.423ZM177.682 226.594L173.767 227.201V222.693L177.682 222.008V226.594Z" fill="url(#paint18_linear_89_41)"/>
<path d="M173.434 233.101L173.168 233.135V238.836L173.501 238.803L178.014 238.317L178.28 238.283V232.472L177.937 232.516L173.423 233.101H173.434ZM177.682 237.742L173.767 238.162V233.654L177.682 233.146V237.742Z" fill="url(#paint19_linear_89_41)"/>
<path d="M173.456 255.023H173.168V260.724H173.478L177.992 260.647H178.291V254.835H177.981L173.467 255.012L173.456 255.023ZM177.682 260.05L173.767 260.116V255.608L177.682 255.465V260.061V260.05Z" fill="url(#paint20_linear_89_41)"/>
<path d="M173.445 244.051L173.168 244.073V249.774L173.49 249.752L178.003 249.465L178.28 249.443V243.631L177.959 243.653L173.445 244.029V244.051ZM177.682 248.901L173.767 249.145V244.637L177.682 244.305V248.901Z" fill="url(#paint21_linear_89_41)"/>
<path d="M173.412 211.191L173.179 211.246V216.959L173.545 216.892L178.059 215.986L178.303 215.942V210.119L177.937 210.197L173.423 211.202L173.412 211.191ZM177.682 215.434L173.767 216.218V211.721L177.682 210.849V215.434Z" fill="url(#paint22_linear_89_41)"/>
<path d="M169.198 206.993L169.431 206.937V201.302L169.054 201.402L164.862 202.529L164.64 202.595V208.131L165.017 208.042L169.209 207.004L169.198 206.993ZM165.239 203.048L168.821 202.087V206.473L165.239 207.357V203.048Z" fill="url(#paint23_linear_89_41)"/>
<path d="M177.903 199.015L173.39 200.231L173.168 200.286V206.009L173.545 205.921L178.059 204.805L178.291 204.75V198.916L177.914 199.015H177.903ZM177.682 204.275L173.767 205.236V200.739L177.682 199.689V204.263V204.275Z" fill="url(#paint24_linear_89_41)"/>
<path d="M164.917 244.769L164.64 244.791V250.316L164.962 250.294L169.154 250.029L169.442 250.007V244.383L169.12 244.416L164.928 244.769H164.917ZM168.832 249.454L165.239 249.675V245.344L168.832 245.046V249.454Z" fill="url(#paint25_linear_89_41)"/>
<path d="M149.513 206.65L149.292 206.705V211.91L149.669 211.821L153.306 210.926L153.539 210.871V205.965V205.567L153.162 205.667L149.513 206.65ZM152.929 210.396L149.89 211.147V207.169L152.929 206.352V210.396Z" fill="url(#paint26_linear_89_41)"/>
<path d="M156.988 255.641H156.7V260.989H157.01L160.903 260.923H161.202V255.476H160.892L156.999 255.63L156.988 255.641ZM160.592 260.337L157.299 260.392V256.238L160.592 256.116V260.337Z" fill="url(#paint27_linear_89_41)"/>
<path d="M149.524 216.495L149.292 216.55V221.754L149.657 221.677L153.295 220.948L153.539 220.903V215.611L153.173 215.688L149.535 216.495H149.524ZM152.929 220.406L149.89 221.014V217.025L152.929 216.351V220.406Z" fill="url(#paint28_linear_89_41)"/>
<path d="M156.977 245.443L156.7 245.465V250.813L157.021 250.791L160.914 250.548L161.202 250.526V245.079L160.881 245.101L156.988 245.432L156.977 245.443ZM160.592 249.962L157.299 250.172V246.018L160.592 245.742V249.973V249.962Z" fill="url(#paint29_linear_89_41)"/>
<path d="M156.955 235.245L156.688 235.278V240.626L157.021 240.593L160.914 240.173L161.18 240.14V234.692L160.836 234.737L156.944 235.245H156.955ZM160.592 239.598L157.298 239.952V235.797L160.592 235.366V239.587V239.598Z" fill="url(#paint30_linear_89_41)"/>
<path d="M156.933 214.848L156.7 214.904V220.262L157.066 220.196L160.969 219.412L161.213 219.367V213.909L160.847 213.987L156.944 214.859L156.933 214.848ZM160.592 218.87L157.299 219.533V215.39L160.592 214.661V218.881V218.87Z" fill="url(#paint31_linear_89_41)"/>
<path d="M156.944 225.047L156.688 225.091V230.45L157.032 230.394L160.936 229.787L161.191 229.743V224.295L160.836 224.362L156.932 225.047H156.944ZM160.592 229.234L157.298 229.743V225.588L160.592 225.003V229.223V229.234Z" fill="url(#paint32_linear_89_41)"/>
<path d="M156.922 204.661L156.7 204.716V210.086L157.077 209.998L160.98 209.037L161.213 208.981V203.523L160.836 203.623L156.933 204.672L156.922 204.661ZM160.592 208.506L157.299 209.324V205.181L160.592 204.297V208.506Z" fill="url(#paint33_linear_89_41)"/>
</g>
<defs>
<linearGradient id="paint0_linear_89_41" x1="379.872" y1="82.5031" x2="728.454" y2="345.279" gradientUnits="userSpaceOnUse">
<stop stop-color="#5EC2A8"/>
<stop offset="1" stop-color="#3EC5E7"/>
</linearGradient>
<linearGradient id="paint1_linear_89_41" x1="375.174" y1="88.7342" x2="723.759" y2="351.509" gradientUnits="userSpaceOnUse">
<stop stop-color="#5EC2A8"/>
<stop offset="1" stop-color="#3EC5E7"/>
</linearGradient>
<linearGradient id="paint2_linear_89_41" x1="365.779" y1="101.198" x2="714.372" y2="363.974" gradientUnits="userSpaceOnUse">
<stop stop-color="#5EC2A8"/>
<stop offset="1" stop-color="#3EC5E7"/>
</linearGradient>
<linearGradient id="paint3_linear_89_41" x1="370.476" y1="94.9666" x2="719.059" y2="357.742" gradientUnits="userSpaceOnUse">
<stop stop-color="#5EC2A8"/>
<stop offset="1" stop-color="#3EC5E7"/>
</linearGradient>
<linearGradient id="paint4_linear_89_41" x1="375.735" y1="88.2486" x2="724.182" y2="350.549" gradientUnits="userSpaceOnUse">
<stop offset="0.595" stop-color="#3EC5E7"/>
<stop offset="0.99" stop-color="#5EC2A8"/>
</linearGradient>
<linearGradient id="paint5_linear_89_41" x1="492.745" y1="-67.178" x2="841.191" y2="195.121" gradientUnits="userSpaceOnUse">
<stop stop-color="#5EC2A8"/>
<stop offset="1" stop-color="#3EC5E7"/>
</linearGradient>
<linearGradient id="paint6_linear_89_41" x1="241.703" y1="266.304" x2="590.149" y2="528.604" gradientUnits="userSpaceOnUse">
<stop stop-color="#5EC2A8"/>
<stop offset="1" stop-color="#3EC5E7"/>
</linearGradient>
<linearGradient id="paint7_linear_89_41" x1="252.338" y1="252.183" x2="600.785" y2="514.484" gradientUnits="userSpaceOnUse">
<stop stop-color="#5EC2A8"/>
<stop offset="1" stop-color="#3EC5E7"/>
</linearGradient>
<linearGradient id="paint8_linear_89_41" x1="231.079" y1="280.424" x2="579.525" y2="542.725" gradientUnits="userSpaceOnUse">
<stop stop-color="#5EC2A8"/>
<stop offset="1" stop-color="#3EC5E7"/>
</linearGradient>
<linearGradient id="paint9_linear_89_41" x1="255.799" y1="247.587" x2="604.245" y2="509.888" gradientUnits="userSpaceOnUse">
<stop stop-color="#5EC2A8"/>
<stop offset="1" stop-color="#3EC5E7"/>
</linearGradient>
<linearGradient id="paint10_linear_89_41" x1="239.363" y1="269.42" x2="587.809" y2="531.719" gradientUnits="userSpaceOnUse">
<stop stop-color="#5EC2A8"/>
<stop offset="1" stop-color="#3EC5E7"/>
</linearGradient>
<linearGradient id="paint11_linear_89_41" x1="222.562" y1="291.728" x2="571.008" y2="554.027" gradientUnits="userSpaceOnUse">
<stop stop-color="#5EC2A8"/>
<stop offset="1" stop-color="#3EC5E7"/>
</linearGradient>
<linearGradient id="paint12_linear_89_41" x1="229.094" y1="283.065" x2="577.54" y2="545.366" gradientUnits="userSpaceOnUse">
<stop stop-color="#5EC2A8"/>
<stop offset="1" stop-color="#3EC5E7"/>
</linearGradient>
<linearGradient id="paint13_linear_89_41" x1="212.992" y1="304.456" x2="561.438" y2="566.757" gradientUnits="userSpaceOnUse">
<stop stop-color="#5EC2A8"/>
<stop offset="1" stop-color="#3EC5E7"/>
</linearGradient>
<linearGradient id="paint14_linear_89_41" x1="217.783" y1="298.092" x2="566.229" y2="560.393" gradientUnits="userSpaceOnUse">
<stop stop-color="#5EC2A8"/>
<stop offset="1" stop-color="#3EC5E7"/>
</linearGradient>
<linearGradient id="paint15_linear_89_41" x1="234.229" y1="276.237" x2="582.675" y2="538.537" gradientUnits="userSpaceOnUse">
<stop stop-color="#5EC2A8"/>
<stop offset="1" stop-color="#3EC5E7"/>
</linearGradient>
<linearGradient id="paint16_linear_89_41" x1="218.814" y1="296.711" x2="567.26" y2="559.01" gradientUnits="userSpaceOnUse">
<stop stop-color="#5EC2A8"/>
<stop offset="1" stop-color="#3EC5E7"/>
</linearGradient>
<linearGradient id="paint17_linear_89_41" x1="227.353" y1="285.374" x2="575.799" y2="547.674" gradientUnits="userSpaceOnUse">
<stop stop-color="#5EC2A8"/>
<stop offset="1" stop-color="#3EC5E7"/>
</linearGradient>
<linearGradient id="paint18_linear_89_41" x1="238.055" y1="271.165" x2="586.5" y2="533.466" gradientUnits="userSpaceOnUse">
<stop stop-color="#5EC2A8"/>
<stop offset="1" stop-color="#3EC5E7"/>
</linearGradient>
<linearGradient id="paint19_linear_89_41" x1="232.72" y1="278.237" x2="581.167" y2="540.537" gradientUnits="userSpaceOnUse">
<stop stop-color="#5EC2A8"/>
<stop offset="1" stop-color="#3EC5E7"/>
</linearGradient>
<linearGradient id="paint20_linear_89_41" x1="222.063" y1="292.402" x2="570.51" y2="554.703" gradientUnits="userSpaceOnUse">
<stop stop-color="#5EC2A8"/>
<stop offset="1" stop-color="#3EC5E7"/>
</linearGradient>
<linearGradient id="paint21_linear_89_41" x1="227.386" y1="285.319" x2="575.843" y2="547.619" gradientUnits="userSpaceOnUse">
<stop stop-color="#5EC2A8"/>
<stop offset="1" stop-color="#3EC5E7"/>
</linearGradient>
<linearGradient id="paint22_linear_89_41" x1="243.378" y1="264.083" x2="591.824" y2="526.383" gradientUnits="userSpaceOnUse">
<stop stop-color="#5EC2A8"/>
<stop offset="1" stop-color="#3EC5E7"/>
</linearGradient>
<linearGradient id="paint23_linear_89_41" x1="244.498" y1="262.591" x2="592.944" y2="524.891" gradientUnits="userSpaceOnUse">
<stop stop-color="#5EC2A8"/>
<stop offset="1" stop-color="#3EC5E7"/>
</linearGradient>
<linearGradient id="paint24_linear_89_41" x1="248.712" y1="257.001" x2="597.159" y2="519.301" gradientUnits="userSpaceOnUse">
<stop stop-color="#5EC2A8"/>
<stop offset="1" stop-color="#3EC5E7"/>
</linearGradient>
<linearGradient id="paint25_linear_89_41" x1="223.96" y1="289.883" x2="572.406" y2="552.182" gradientUnits="userSpaceOnUse">
<stop stop-color="#5EC2A8"/>
<stop offset="1" stop-color="#3EC5E7"/>
</linearGradient>
<linearGradient id="paint26_linear_89_41" x1="236.935" y1="272.646" x2="585.38" y2="534.946" gradientUnits="userSpaceOnUse">
<stop stop-color="#5EC2A8"/>
<stop offset="1" stop-color="#3EC5E7"/>
</linearGradient>
<linearGradient id="paint27_linear_89_41" x1="215.797" y1="300.721" x2="564.244" y2="563.021" gradientUnits="userSpaceOnUse">
<stop stop-color="#5EC2A8"/>
<stop offset="1" stop-color="#3EC5E7"/>
</linearGradient>
<linearGradient id="paint28_linear_89_41" x1="232.144" y1="279.01" x2="580.59" y2="541.31" gradientUnits="userSpaceOnUse">
<stop stop-color="#5EC2A8"/>
<stop offset="1" stop-color="#3EC5E7"/>
</linearGradient>
<linearGradient id="paint29_linear_89_41" x1="220.755" y1="294.136" x2="569.201" y2="556.436" gradientUnits="userSpaceOnUse">
<stop stop-color="#5EC2A8"/>
<stop offset="1" stop-color="#3EC5E7"/>
</linearGradient>
<linearGradient id="paint30_linear_89_41" x1="225.712" y1="287.551" x2="574.158" y2="549.851" gradientUnits="userSpaceOnUse">
<stop stop-color="#5EC2A8"/>
<stop offset="1" stop-color="#3EC5E7"/>
</linearGradient>
<linearGradient id="paint31_linear_89_41" x1="235.626" y1="274.381" x2="584.072" y2="536.68" gradientUnits="userSpaceOnUse">
<stop stop-color="#5EC2A8"/>
<stop offset="1" stop-color="#3EC5E7"/>
</linearGradient>
<linearGradient id="paint32_linear_89_41" x1="230.669" y1="280.966" x2="579.116" y2="543.267" gradientUnits="userSpaceOnUse">
<stop stop-color="#5EC2A8"/>
<stop offset="1" stop-color="#3EC5E7"/>
</linearGradient>
<linearGradient id="paint33_linear_89_41" x1="240.583" y1="267.795" x2="589.029" y2="530.095" gradientUnits="userSpaceOnUse">
<stop stop-color="#5EC2A8"/>
<stop offset="1" stop-color="#3EC5E7"/>
</linearGradient>
<clipPath id="clip0_89_41">
<rect width="1026" height="265" fill="white"/>
</clipPath>
</defs>
</svg>
