<svg width="184" height="143" viewBox="0 0 184 143" fill="none" xmlns="http://www.w3.org/2000/svg">
<g clip-path="url(#clip0_89_176)">
<path d="M103.584 21.0741C98.0748 13.9708 91.6227 8.67867 84.2461 5.2072C76.86 1.73573 68.9741 0 60.5976 0C52.2211 0 44.3539 1.73573 37.0056 5.2072C29.6573 8.67867 23.2335 13.9708 17.7246 21.0741C12.2157 28.1774 7.88598 37.1579 4.73536 48.0157C1.57531 58.8829 0 71.7311 0 86.5792C0 101.427 1.57531 114.285 4.72593 125.143C6.65969 131.803 9.03681 137.755 11.8573 143H24.5352C20.9035 137.255 17.951 130.199 15.6871 121.85C13.0553 112.153 11.7346 100.399 11.7346 86.5792C11.7346 72.7594 13.0553 61.1092 15.6871 51.374C18.3189 41.6388 21.8751 33.6676 26.3464 27.4793C30.8176 21.291 36.0057 16.763 41.9108 13.8859C47.8158 11.0087 54.0416 9.57484 60.5881 9.57484C67.1346 9.57484 73.3793 11.0087 79.3315 13.8859C85.2743 16.763 90.4718 21.291 94.8959 27.4793C99.3294 33.6676 102.857 41.6293 105.499 51.374C108.13 61.1186 109.451 72.8537 109.451 86.5792C109.451 100.305 108.13 112.144 105.499 121.85C103.225 130.208 100.292 137.255 96.6882 143H109.451C112.281 137.755 114.677 131.803 116.639 125.143C119.827 114.285 121.431 101.427 121.431 86.5792C121.431 71.7311 119.837 58.8735 116.639 48.0157C113.441 37.1579 109.093 28.1774 103.584 21.0741Z" fill="url(#paint0_linear_89_176)"/>
<path d="M175.02 1.198L126.043 44.431L129.515 49.2231C130.156 49.9401 131.034 50.4212 132.147 50.657C133.26 50.8928 134.382 50.5344 135.495 49.5816L172.859 16.414C172.624 19.4515 172.501 22.3192 172.501 25.036V143.009H184V1.198H175.02Z" fill="url(#paint1_linear_89_176)"/>
</g>
<defs>
<linearGradient id="paint0_linear_89_176" x1="0" y1="71.5047" x2="198.951" y2="71.5047" gradientUnits="userSpaceOnUse">
<stop stop-color="#5EC2A8"/>
<stop offset="1" stop-color="#3EC5E7"/>
</linearGradient>
<linearGradient id="paint1_linear_89_176" x1="126.034" y1="72.099" x2="221.005" y2="72.099" gradientUnits="userSpaceOnUse">
<stop stop-color="#5EC2A8"/>
<stop offset="1" stop-color="#3EC5E7"/>
</linearGradient>
<clipPath id="clip0_89_176">
<rect width="184" height="143" fill="white"/>
</clipPath>
</defs>
</svg>
