<svg width="231" height="143" viewBox="0 0 231 143" fill="none" xmlns="http://www.w3.org/2000/svg">
<g clip-path="url(#clip0_89_180)">
<path d="M103.425 21.0741C97.9249 13.9708 91.4826 8.67867 84.1173 5.2072C76.7426 1.73573 68.8686 0 60.5049 0C52.1412 0 44.2861 1.73573 36.9491 5.2072C29.612 8.67867 23.198 13.9708 17.6975 21.0741C12.1971 28.1774 7.87393 37.1579 4.72813 48.0157C1.5729 58.8829 0 71.7311 0 86.5792C0 101.427 1.5729 114.285 4.71871 125.143C6.64952 131.803 9.023 137.755 11.8392 143H24.4977C20.8716 137.255 17.9236 130.199 15.6631 121.85C13.0353 112.153 11.7167 100.399 11.7167 86.5792C11.7167 72.7594 13.0353 61.1092 15.6631 51.374C18.2909 41.6388 21.8417 33.6676 26.3061 27.4793C30.7705 21.291 35.9507 16.763 41.8467 13.8859C47.7428 11.0087 53.959 9.57484 60.4955 9.57484C67.032 9.57484 73.2671 11.0087 79.2102 13.8859C85.1439 16.763 90.3336 21.291 94.7509 27.4793C99.1776 33.6676 102.7 41.6293 105.337 51.374C107.965 61.1186 109.284 72.8537 109.284 86.5792C109.284 100.305 107.965 112.144 105.337 121.85C103.067 130.208 100.138 137.255 96.5404 143H109.284C112.109 137.755 114.502 131.803 116.461 125.143C119.644 114.285 121.245 101.427 121.245 86.5792C121.245 71.7311 119.654 58.8735 116.461 48.0157C113.268 37.1579 108.926 28.1774 103.425 21.0741Z" fill="url(#paint0_linear_89_180)"/>
<path d="M227.053 25.5644C224.426 19.8572 220.856 15.1028 216.354 11.3106C211.852 7.51837 206.672 4.68837 200.813 2.81114C194.955 0.933901 188.795 0 182.344 0C175.411 0 168.95 1.0188 162.969 3.0564C156.989 5.094 151.733 8.06551 147.184 11.9803C142.644 15.8952 138.896 20.6873 135.948 26.3473C133 32.0168 131.003 38.488 129.967 45.7517L135.825 46.7139C137.417 46.8743 138.67 46.6762 139.593 46.1196C140.506 45.563 141.25 44.4027 141.806 42.6481C142.682 37.856 144.255 33.4506 146.525 29.4132C148.795 25.3851 151.667 21.9136 155.133 18.9987C158.599 16.0838 162.583 13.8104 167.095 12.169C171.597 10.537 176.523 9.71634 181.863 9.71634C186.723 9.71634 191.432 10.4333 195.972 11.8671C200.512 13.301 204.496 15.499 207.924 18.4516C211.353 21.4042 214.103 25.1776 216.175 29.7716C218.247 34.3657 219.283 39.771 219.283 45.997C219.283 51.506 218.445 56.6944 216.768 61.562C215.092 66.4296 212.765 71.184 209.77 75.8158C206.785 80.4475 203.253 85.0416 199.184 89.5884C195.115 94.1353 190.698 98.852 185.913 103.72L147.156 143.019H160.634L194.512 108.389C199.372 103.437 204.016 98.5878 208.442 93.8429C212.869 89.0979 216.75 84.202 220.103 79.174C223.446 74.1461 226.102 68.8917 228.052 63.4298C230.001 57.9584 230.981 52.0343 230.981 45.6479C230.981 37.9881 229.662 31.2998 227.035 25.5927L227.053 25.5644Z" fill="url(#paint1_linear_89_180)"/>
</g>
<defs>
<linearGradient id="paint0_linear_89_180" x1="-5.0201" y1="71.5047" x2="125.973" y2="71.5047" gradientUnits="userSpaceOnUse">
<stop stop-color="#5EC2A8"/>
<stop offset="1" stop-color="#3EC5E7"/>
</linearGradient>
<linearGradient id="paint1_linear_89_180" x1="125.785" y1="0" x2="234.946" y2="0" gradientUnits="userSpaceOnUse">
<stop stop-color="#5EC2A8"/>
<stop offset="1" stop-color="#3EC5E7"/>
</linearGradient>
<clipPath id="clip0_89_180">
<rect width="231" height="143" fill="white"/>
</clipPath>
</defs>
</svg>
