<svg width="235" height="142" viewBox="0 0 235 142" fill="none" xmlns="http://www.w3.org/2000/svg">
<g clip-path="url(#clip0_89_184)">
<path d="M103.503 20.9267C97.9984 13.8731 91.5512 8.61798 84.1804 5.17079C76.8001 1.7236 68.9203 0 60.5503 0C52.1803 0 44.3193 1.7236 36.9768 5.17079C29.6342 8.61798 23.2153 13.8731 17.7108 20.9267C12.2062 27.9803 7.87983 36.8981 4.73167 47.6799C1.57408 58.4711 0 71.2295 0 85.9737C0 100.718 1.57408 113.486 4.72224 124.268C6.6545 130.881 9.02976 136.792 11.848 142H24.5161C20.8872 136.295 17.937 129.288 15.6748 120.998C13.0451 111.369 11.7255 99.697 11.7255 85.9737C11.7255 72.2505 13.0451 60.6818 15.6748 51.0147C18.3046 41.3476 21.8581 33.4322 26.3258 27.2872C30.7936 21.1422 35.9777 16.6458 41.8781 13.7888C47.7786 10.9317 53.9995 9.50788 60.5409 9.50788C67.0823 9.50788 73.322 10.9317 79.2696 13.7888C85.2078 16.6458 90.4013 21.1422 94.8219 27.2872C99.252 33.4322 102.777 41.3382 105.416 51.0147C108.046 60.6912 109.366 72.3442 109.366 85.9737C109.366 99.6033 108.046 111.359 105.416 120.998C103.145 129.298 100.213 136.295 96.6128 142H109.366C112.193 136.792 114.587 130.881 116.548 124.268C119.734 113.486 121.336 100.718 121.336 85.9737C121.336 71.2295 119.743 58.4618 116.548 47.6799C113.353 36.8981 109.007 27.9803 103.503 20.9267Z" fill="url(#paint0_linear_89_184)"/>
<path d="M138.5 133.841C137.822 131.818 137.284 130.338 136.889 129.382C136.248 127.799 135.23 126.881 133.835 126.647C132.44 126.413 131.101 126.572 129.829 127.125L125.286 129.026C126.502 133.335 128.047 137.663 129.904 142H142.233C141.96 141.513 141.686 141.035 141.441 140.557C140.169 138.103 139.188 135.864 138.51 133.841H138.5Z" fill="url(#paint1_linear_89_184)"/>
<path d="M225.49 96.7367C219.146 89.4864 209.758 84.709 197.307 82.4046C202.095 81.215 206.525 79.4914 210.588 77.2338C214.66 74.9763 218.185 72.1755 221.182 68.8501C224.17 65.5246 226.508 61.6559 228.185 57.2532C229.863 52.8506 230.702 47.914 230.702 42.4434C230.702 35.4647 229.448 29.3197 226.932 24.0084C224.415 18.6971 220.984 14.257 216.639 10.688C212.294 7.11907 207.242 4.44937 201.501 2.6602C195.761 0.871033 189.653 -0.0188675 183.197 -0.0188675C176.259 -0.0188675 169.793 0.992809 163.808 3.01616C157.823 5.03951 152.563 7.99024 148.011 11.8777C143.468 15.7652 139.716 20.5238 136.766 26.1442C133.816 31.774 131.818 38.2 130.781 45.4129L136.644 46.3684C138.236 46.5276 139.471 46.3309 140.357 45.7782C141.234 45.2255 141.912 44.0734 142.393 42.331C143.27 37.5724 144.863 33.1978 147.181 29.1886C149.491 25.1887 152.384 21.7415 155.853 18.847C159.322 15.9525 163.327 13.695 167.88 12.065C172.423 10.4445 177.372 9.62953 182.716 9.62953C187.58 9.62953 192.245 10.304 196.713 11.6529C201.181 13.0018 205.092 15.1001 208.439 17.9571C211.785 20.8142 214.462 24.4206 216.46 28.7764C218.449 33.1416 219.448 38.2937 219.448 44.2326C219.448 49.3847 218.486 54.1058 216.573 58.3867C214.66 62.6676 211.822 66.3583 208.08 69.4496C204.329 72.5408 199.663 74.9763 194.083 76.7655C188.503 78.5453 182.037 79.5195 174.695 79.6787V87.8846C183.866 87.8846 191.586 88.8213 197.844 90.676C204.103 92.5401 209.155 95.0787 212.982 98.2823C216.809 101.495 219.542 105.317 221.182 109.757C222.813 114.198 223.633 118.994 223.633 124.146C223.633 128.427 222.737 132.848 220.937 137.4C220.315 138.984 219.57 140.52 218.722 142H231.315C233.765 136.408 235 130.375 235 123.911C235 113.055 231.833 103.996 225.49 96.7367Z" fill="url(#paint2_linear_89_184)"/>
</g>
<defs>
<linearGradient id="paint0_linear_89_184" x1="-6.40943" y1="71.0047" x2="121.336" y2="71.0047" gradientUnits="userSpaceOnUse">
<stop stop-color="#5EC2A8"/>
<stop offset="1" stop-color="#3EC5E7"/>
</linearGradient>
<linearGradient id="paint1_linear_89_184" x1="124.381" y1="134.272" x2="142.224" y2="134.272" gradientUnits="userSpaceOnUse">
<stop stop-color="#5EC2A8"/>
<stop offset="1" stop-color="#3EC5E7"/>
</linearGradient>
<linearGradient id="paint2_linear_89_184" x1="125.276" y1="-0.000132328" x2="235" y2="-0.000132328" gradientUnits="userSpaceOnUse">
<stop stop-color="#5EC2A8"/>
<stop offset="1" stop-color="#3EC5E7"/>
</linearGradient>
<clipPath id="clip0_89_184">
<rect width="235" height="142" fill="white"/>
</clipPath>
</defs>
</svg>
