<svg width="247" height="141" viewBox="0 0 247 141" fill="none" xmlns="http://www.w3.org/2000/svg">
<g clip-path="url(#clip0_89_189)">
<path d="M15.6797 121.777C13.0491 112.085 11.7291 100.339 11.7291 86.527C11.7291 72.7155 13.0491 61.0723 15.6797 51.343C18.3103 41.6137 21.8648 33.6473 26.334 27.4628C30.8031 21.2782 35.9888 16.7529 41.8911 13.8775C47.7934 11.0021 54.0162 9.56907 60.5597 9.56907C67.1031 9.56907 73.3448 11.0021 79.2942 13.8775C85.2342 16.7529 90.4293 21.2782 94.8513 27.4628C99.2827 33.6473 102.809 41.6042 105.449 51.343C108.08 61.0818 109.4 72.8098 109.4 86.527C109.4 100.244 108.08 112.076 105.449 121.777C103.431 129.225 100.876 135.626 97.793 141H110.399C112.794 136.23 114.859 130.922 116.584 125.067C119.771 114.216 121.374 101.366 121.374 86.527C121.374 71.6879 119.78 58.838 116.584 47.9868C113.388 37.1355 109.041 28.1604 103.535 21.0614C98.0287 13.9624 91.5796 8.67344 84.2065 5.20407C76.8239 1.73469 68.9416 0 60.5691 0C52.1965 0 44.3331 1.73469 36.9882 5.20407C29.6434 8.67344 23.2225 13.9624 17.7163 21.0614C12.21 28.1604 7.88228 37.1355 4.73314 47.9868C1.57457 58.8474 0 71.6879 0 86.527C0 101.366 1.57457 114.216 4.72371 125.067C6.42085 130.931 8.47628 136.239 10.8617 141H23.364C20.262 135.626 17.6974 129.215 15.6703 121.777H15.6797Z" fill="url(#paint0_linear_89_189)"/>
<path d="M215.999 122.673H243.766C244.878 122.673 245.699 122.418 246.217 121.89C246.736 121.372 247 120.674 247 119.797V113.575H215.999V1.67813H205.825L120.723 114.178L121.798 119.807C122.034 120.683 122.477 121.381 123.118 121.9C123.759 122.418 124.674 122.682 125.871 122.682H205.948V141.009H215.999V122.682V122.673ZM205.938 24.8984V113.584H133.282L206.542 15.5556C206.382 17.2338 206.24 18.8647 206.127 20.458C206.004 22.0513 205.948 23.5314 205.948 24.889L205.938 24.8984Z" fill="url(#paint1_linear_89_189)"/>
</g>
<defs>
<linearGradient id="paint0_linear_89_189" x1="0" y1="70.5" x2="121.374" y2="70.5" gradientUnits="userSpaceOnUse">
<stop stop-color="#5EC2A8"/>
<stop offset="1" stop-color="#3EC5E7"/>
</linearGradient>
<linearGradient id="paint1_linear_89_189" x1="120.714" y1="71.3391" x2="247" y2="71.3391" gradientUnits="userSpaceOnUse">
<stop stop-color="#5EC2A8"/>
<stop offset="1" stop-color="#3EC5E7"/>
</linearGradient>
<clipPath id="clip0_89_189">
<rect width="247" height="141" fill="white"/>
</clipPath>
</defs>
</svg>
