<svg width="238" height="143" viewBox="0 0 238 143" fill="none" xmlns="http://www.w3.org/2000/svg">
<g clip-path="url(#clip0_89_200)">
<path d="M16.1051 124.845C13.3973 114.91 12.0481 102.866 12.0481 88.7133C12.0481 74.5602 13.3973 62.62 16.1051 52.6385C18.8128 42.6569 22.4546 34.5022 27.0493 28.1554C31.6346 21.818 36.9652 17.1757 43.0317 14.2283C49.0982 11.2809 55.4855 9.81192 62.2125 9.81192C68.9394 9.81192 75.3456 11.2809 81.4499 14.2283C87.5541 17.1757 92.8847 21.818 97.4323 28.1554C101.98 34.4927 105.603 42.6569 108.31 52.6385C111.018 62.62 112.367 74.645 112.367 88.7133C112.367 102.782 111.018 114.91 108.31 124.845C106.424 131.775 104.074 137.811 101.3 142.99H114.151C116.292 138.508 118.16 133.593 119.745 128.216C123.019 117.095 124.661 103.921 124.661 88.7039C124.661 73.4867 123.019 60.3224 119.745 49.192C116.462 38.071 111.999 28.8616 106.348 21.5826C100.697 14.3036 94.0735 8.87967 86.4974 5.32021C78.9119 1.76075 70.8264 -0.0189819 62.2219 -0.0189819C53.6175 -0.0189819 45.5413 1.76075 38.003 5.32021C30.4647 8.87967 23.8698 14.2942 18.209 21.5826C12.5576 28.8616 8.10442 38.071 4.86831 49.192C1.61334 60.3318 0 73.4962 0 88.7133C0 103.931 1.61334 117.095 4.85888 128.225C6.42504 133.602 8.27424 138.518 10.4065 143H23.1528C20.3507 137.821 17.992 131.785 16.1051 124.854V124.845Z" fill="url(#paint0_linear_89_200)"/>
<path d="M238 118.771C238 111.247 236.83 104.288 234.5 97.9134C232.16 91.529 228.679 86.0297 224.046 81.4062C219.414 76.7827 213.659 73.1855 206.771 70.6054C199.884 68.0253 191.893 66.7446 182.798 66.7446C178.373 66.7446 173.721 67.0554 168.844 67.6674C163.966 68.2795 158.786 69.2871 153.295 70.6713L163.626 12.7594H226.565C228.943 12.7594 230.679 12.2038 231.792 11.1021C232.896 10.0004 233.453 8.62555 233.453 6.99648V1.95862H155.144L141.625 78.892L149.125 81.2273C155.022 79.5888 160.598 78.4023 165.843 77.6678C171.089 76.9333 176.042 76.5661 180.722 76.5661C188.421 76.5661 195.129 77.6113 200.818 79.6924C206.516 81.7829 211.224 84.6832 214.951 88.4027C218.678 92.1222 221.47 96.6045 223.31 101.84C225.15 107.076 226.075 112.801 226.075 119.016C226.075 126.625 224.867 133.433 222.452 139.45C221.961 140.674 221.414 141.851 220.848 143H233.424C236.472 135.853 238.01 127.783 238.01 118.781L238 118.771Z" fill="url(#paint1_linear_89_200)"/>
</g>
<defs>
<linearGradient id="paint0_linear_89_200" x1="0" y1="71.4999" x2="124.661" y2="71.4999" gradientUnits="userSpaceOnUse">
<stop stop-color="#5EC2A8"/>
<stop offset="1" stop-color="#3EC5E7"/>
</linearGradient>
<linearGradient id="paint1_linear_89_200" x1="132.765" y1="72.4793" x2="238" y2="72.4793" gradientUnits="userSpaceOnUse">
<stop stop-color="#5EC2A8"/>
<stop offset="1" stop-color="#3EC5E7"/>
</linearGradient>
<clipPath id="clip0_89_200">
<rect width="238" height="143" fill="white"/>
</clipPath>
</defs>
</svg>
