<svg width="63" height="57" viewBox="0 0 63 57" fill="none" xmlns="http://www.w3.org/2000/svg">
<g clip-path="url(#clip0_89_255)">
<path d="M56.3405 0H6.52629C2.9321 0 0 2.87346 0 6.39577V39.2089C0 42.7621 2.9321 45.6046 6.52629 45.6046H19.3267L29.5732 55.6463C30.6137 56.6659 32.2847 56.6659 33.3251 55.6463L43.5717 45.6046H56.372C59.9662 45.6046 62.8983 42.7312 62.8983 39.2089V6.39577C62.8983 2.87346 59.9662 0 56.372 0H56.3405Z" fill="url(#paint0_linear_89_255)"/>
<path d="M47.6388 16.4683C47.6388 16.4683 47.6388 16.3139 47.6388 16.2521C47.6388 16.1903 47.6388 16.1594 47.6073 16.0976C47.6073 16.0358 47.6073 15.974 47.5442 15.9431C47.5442 15.8813 47.4812 15.8504 47.4496 15.7886C47.4496 15.7577 47.4181 15.6959 47.3866 15.665C47.3551 15.6032 47.292 15.5414 47.2605 15.4796C47.2605 15.4796 47.2289 15.4178 47.1974 15.3869C47.1344 15.3251 47.0398 15.2633 46.9767 15.2016C46.9767 15.2016 46.9137 15.1707 46.9137 15.1398C46.8506 15.078 46.756 15.0471 46.6614 15.0162C46.5984 15.0162 46.5669 14.9853 46.5038 14.9544C46.4407 14.9544 46.3462 14.9235 46.2516 14.8926C46.157 14.8926 46.0939 14.8926 45.9994 14.8926C45.9678 14.8926 45.9048 14.8926 45.8732 14.8926C45.8102 14.8926 45.7471 14.8926 45.6841 14.8926C45.621 14.8926 45.558 14.9235 45.5264 14.9544C45.4634 14.9544 45.4318 14.9544 45.3688 14.9853C45.3057 14.9853 45.2427 15.0471 45.2112 15.078C45.1796 15.078 45.1166 15.1089 45.085 15.1398C45.022 15.1707 44.9589 15.2324 44.8959 15.2942C44.8959 15.2942 44.8328 15.3251 44.8328 15.356L40.6081 19.4036C39.946 20.0525 39.9145 21.103 40.6081 21.7827C40.9549 22.1226 41.3963 22.2771 41.8377 22.2771C42.2791 22.2771 42.6889 22.1226 43.0357 21.7827L44.3284 20.5468V28.8273C44.3284 29.7542 45.085 30.4958 46.0309 30.4958C46.9767 30.4958 47.7334 29.7542 47.7334 28.8273V16.561C47.7334 16.561 47.7334 16.4992 47.7334 16.4683H47.6388Z" fill="white"/>
<path d="M24.2136 32.0716C24.2136 32.0716 34.87 27.2516 34.87 19.4964C34.87 19.4964 34.87 13.3169 29.0058 13.3169C25.254 13.3169 24.2136 16.1904 24.2136 16.1904C24.2136 16.1904 23.1732 13.3169 19.4213 13.3169C13.5571 13.3169 13.5571 19.4964 13.5571 19.4964C13.5571 27.2516 24.2136 32.0716 24.2136 32.0716Z" fill="white"/>
</g>
<defs>
<linearGradient id="paint0_linear_89_255" x1="0" y1="28.2094" x2="62.8668" y2="28.2094" gradientUnits="userSpaceOnUse">
<stop stop-color="#22E2B5"/>
<stop offset="1" stop-color="#1DCDEF"/>
</linearGradient>
<clipPath id="clip0_89_255">
<rect width="62.8668" height="56.4187" fill="white"/>
</clipPath>
</defs>
</svg>
