<svg width="307" height="45" viewBox="0 0 307 45" fill="none" xmlns="http://www.w3.org/2000/svg">
<g clip-path="url(#clip0_89_228)">
<path fill-rule="evenodd" clip-rule="evenodd" d="M22.5396 0C26.0824 0 29.585 0.834829 32.7534 2.43716C35.8014 3.98564 38.4618 6.20736 40.534 8.94075L32.8603 14.7442C31.5502 12.9937 29.8122 11.6068 27.8337 10.7181C25.8417 9.82944 23.6626 9.46589 21.4969 9.66786C19.3311 9.86984 17.2456 10.6104 15.4542 11.8492C13.6494 13.088 12.1922 14.7576 11.2163 16.7101C10.2404 18.6625 9.77249 20.8438 9.86607 23.0386C9.95965 25.2334 10.6014 27.3609 11.7377 29.2325C12.874 31.1041 14.4649 32.6526 16.3633 33.7298C18.2616 34.807 20.4006 35.386 22.5664 35.3995L31.363 28.2765V45.0135H22.5664C19.6119 45.0135 16.6841 44.4479 13.9435 43.3169C11.2029 42.1858 8.71636 40.5296 6.63083 38.4291C4.54531 36.342 2.88758 33.8645 1.75124 31.1445C0.614895 28.4111 0.0400391 25.4892 0.0400391 22.5269C0.0400391 19.5646 0.628264 16.6427 1.75124 13.9093C2.88758 11.1759 4.54531 8.69839 6.63083 6.62478C8.72973 4.52424 11.2163 2.86804 13.9435 1.73698C16.6574 0.56553 19.5852 0 22.5396 0ZM33.5421 45V26.3106L42.3521 19.1876V45H33.5421Z" fill="url(#paint0_linear_89_228)"/>
<path d="M62.4721 23.4829C62.4721 15.9964 67.2447 10.4623 74.7847 10.4623C81.2418 10.4623 84.9717 14.2594 85.3326 19.3492H81.0011C80.6402 16.3196 78.5948 14.3267 74.9317 14.3267H74.5708C69.758 14.3267 66.7634 17.8276 66.7634 23.4695C66.7634 29.1113 69.7848 32.6122 74.5708 32.6122H74.9317C78.6349 32.6122 81.2551 30.4443 81.7231 27.3743L81.7632 26.9569H74.7713V23.0655H82.445C84.4235 23.0655 85.493 24.1427 85.493 26.1355V36.1131H81.7231V33.4739C80.5867 34.8474 78.2204 36.4766 74.4103 36.4766C67.1244 36.4766 62.4453 30.9425 62.4453 23.456L62.4721 23.4829Z" fill="#03363D"/>
<path d="M97.7524 36.1265V10.8258H108.768C113.541 10.8258 116.843 13.6804 116.843 18.6759C116.843 23.6714 113.541 26.5125 108.768 26.5125H102.057V36.1265H97.7524ZM102.071 22.6481H108.234C111.041 22.6481 112.538 21.1265 112.538 18.6759C112.538 16.2253 111.028 14.7037 108.234 14.7037H102.071V22.6615V22.6481Z" fill="#03363D"/>
<path d="M143.888 36.1265L141.522 29.9461H130.372L127.992 36.1265H123.5L133.447 10.8258H138.647L148.406 36.1265H143.888ZM131.829 26.0412H140.011L135.92 15.3231L131.829 26.0412Z" fill="#03363D"/>
<path d="M158.888 36.1265V10.8258H170.198C174.649 10.8258 177.992 13.7208 177.992 17.693C177.992 20.9111 176.414 23.1463 173.794 24.0888C176.561 24.0888 177.631 25.2872 177.631 27.6705V36.1265H173.326V28.7477C173.326 26.8626 172.791 26.324 170.92 26.324H163.206V36.1265H158.901H158.888ZM163.192 22.5H169.115C172.096 22.5 173.674 20.8707 173.674 18.447C173.674 16.0233 172.096 14.6903 169.115 14.6903H163.192V22.5Z" fill="#03363D"/>
<path d="M190.545 36.1265V10.8258H209.288V14.6903H194.85V21.1938H207.122V25.0583H194.85V32.2486H209.649V36.1131H190.545V36.1265Z" fill="#03363D"/>
<path d="M237.71 10.8258H242.014V36.1265H236.252L225.611 16.4676V36.1265H221.306V10.8258H227.068L237.71 30.3904V10.8258Z" fill="#03363D"/>
<path d="M253.899 23.4829C253.899 15.8483 258.284 10.4623 265.851 10.4623C271.947 10.4623 275.824 14.044 276.185 18.9856H271.88C271.412 16.0906 269.22 14.3267 266.025 14.3267H265.664C261.065 14.3267 258.204 18.0565 258.204 23.4695C258.204 28.8824 261.078 32.6122 265.664 32.6122H266.025C269.22 32.6122 271.412 30.8752 271.88 27.9533H276.185C275.824 32.9757 271.947 36.4901 265.851 36.4901C258.271 36.4901 253.899 31.1041 253.899 23.4695V23.4829Z" fill="#03363D"/>
<path d="M293.498 36.1265V25.8662L284.313 10.8258H289.247L295.784 21.6651L302.241 10.8258H307.014L297.803 25.8662V36.1265H293.498Z" fill="#03363D"/>
</g>
<defs>
<linearGradient id="paint0_linear_89_228" x1="-6.7188e-05" y1="22.5" x2="42.3388" y2="22.5" gradientUnits="userSpaceOnUse">
<stop stop-color="#22E2B5"/>
<stop offset="1" stop-color="#1DCDEF"/>
</linearGradient>
<clipPath id="clip0_89_228">
<rect width="307" height="45" fill="white"/>
</clipPath>
</defs>
</svg>
