<svg width="134" height="143" viewBox="0 0 134 143" fill="none" xmlns="http://www.w3.org/2000/svg">
<path fill-rule="evenodd" clip-rule="evenodd" d="M71.24 0.000215724C82.431 0.000215724 93.4855 2.64629 103.494 7.73136C113.115 12.6554 121.508 19.6962 128.059 28.3707L103.789 46.7782C99.6496 41.233 94.1679 36.8382 87.89 34.008C81.6121 31.2009 74.7201 30.0504 67.8509 30.6717C61.0044 31.2929 54.4308 33.6859 48.7444 37.5975C43.0579 41.5091 38.4632 46.8242 35.3698 53.0368C32.2764 59.2493 30.8206 66.1521 31.0936 73.1009C31.3893 80.0497 33.4137 86.8145 37.0075 92.7509C40.6014 98.6873 45.6282 103.588 51.6104 107.017C57.5925 110.445 64.348 112.263 71.2173 112.309L99.0355 89.6907V142.819H71.2173C61.8687 142.842 52.6112 141.024 43.9677 137.435C35.3243 133.846 27.477 128.576 20.8352 121.904C14.2389 115.3 8.98461 107.431 5.41351 98.7793C1.84241 90.1048 0 80.809 0 71.4212C0 62.0334 1.84241 52.7376 5.41351 44.0631C8.98461 35.3886 14.2389 27.5424 20.8352 20.9387C27.4543 14.266 35.3243 8.99687 43.9677 5.40741C52.6339 1.79494 61.8915 -0.0227936 71.24 0.000215724ZM105.996 142.819V83.5011L133.814 60.8829V142.819H105.996Z" fill="url(#paint0_linear_89_218)"/>
<defs>
<linearGradient id="paint0_linear_89_218" x1="0.0227459" y1="71.3982" x2="133.814" y2="71.3982" gradientUnits="userSpaceOnUse">
<stop stop-color="#22E2B5"/>
<stop offset="0.435" stop-color="#20D9CE"/>
<stop offset="1" stop-color="#1DCDEF"/>
</linearGradient>
</defs>
</svg>
